<?xml version="1.0" standalone="no"?>
<!DOCTYPE svg PUBLIC "-//W3C//DTD SVG 20010904//EN"
 "http://www.w3.org/TR/2001/REC-SVG-20010904/DTD/svg10.dtd">
<svg version="1.0" xmlns="http://www.w3.org/2000/svg"
 width="512.000000pt" height="512.000000pt" viewBox="0 0 512.000000 512.000000"
 preserveAspectRatio="xMidYMid meet" >

<g transform="translate(0.000000,512.000000) scale(0.100000,-0.100000)"
fill="#444" stroke="none">
<path d="M2370 5114 c-19 -2 -78 -9 -130 -15 -791 -90 -1522 -586 -1924 -1305
-146 -262 -252 -588 -297 -914 -18 -125 -18 -515 0 -640 105 -762 511 -1409
1146 -1826 609 -400 1377 -517 2090 -317 929 260 1646 1043 1819 1987 156 845
-103 1682 -705 2285 -398 397 -889 644 -1451 727 -98 14 -474 27 -548 18z
m1351 -1424 c106 -32 199 -103 261 -200 94 -146 90 -369 -10 -511 -17 -24
-358 -371 -759 -770 -630 -628 -736 -730 -784 -752 -151 -70 -328 -62 -456 22
-67 43 -814 795 -846 851 -38 67 -57 145 -57 231 0 307 289 531 585 454 108
-29 150 -60 363 -269 l202 -200 543 541 c471 471 550 545 605 572 34 17 79 35
100 40 68 16 186 12 253 -9z"/>
<path d="M3490 3382 c-25 -17 -304 -289 -620 -606 -626 -627 -604 -609 -692
-585 -36 9 -81 49 -303 269 -279 277 -284 281 -371 267 -103 -17 -165 -143
-119 -241 20 -42 732 -752 768 -765 40 -15 104 -13 141 4 42 20 1432 1412
1445 1448 19 49 13 121 -11 157 -37 53 -71 73 -135 78 -51 3 -63 0 -103 -26z"/>
</g>
</svg>
