<svg width="36" height="36" viewBox="0 0 36 36" fill="none" xmlns="http://www.w3.org/2000/svg">
<path fill-rule="evenodd" clip-rule="evenodd" d="M17.7766 12.6001C17.9556 12.6001 18.1273 12.6712 18.2539 12.7978C18.3804 12.9244 18.4516 13.0961 18.4516 13.2751V17.1001H22.2766C22.4556 17.1001 22.6273 17.1712 22.7538 17.2978C22.8805 17.4244 22.9516 17.5961 22.9516 17.7751C22.9516 17.9541 22.8805 18.1258 22.7538 18.2524C22.6273 18.379 22.4556 18.4501 22.2766 18.4501H18.4516V22.2751C18.4516 22.4541 18.3804 22.6258 18.2539 22.7524C18.1273 22.879 17.9556 22.9501 17.7766 22.9501C17.5975 22.9501 17.4259 22.879 17.2993 22.7524C17.1727 22.6258 17.1016 22.4541 17.1016 22.2751V18.4501H13.2766C13.0975 18.4501 12.9259 18.379 12.7993 18.2524C12.6727 18.1258 12.6016 17.9541 12.6016 17.7751C12.6016 17.5961 12.6727 17.4244 12.7993 17.2978C12.9259 17.1712 13.0975 17.1001 13.2766 17.1001H17.1016V13.2751C17.1016 13.0961 17.1727 12.9244 17.2993 12.7978C17.4259 12.6712 17.5975 12.6001 17.7766 12.6001Z" fill="#E11515"/>
<rect x="1.5" y="1.5" width="33" height="33" rx="16.5" stroke="#E11515" stroke-width="3"/>
</svg>
