<svg width="31" height="19" viewBox="0 0 31 19" fill="none" xmlns="http://www.w3.org/2000/svg">
<path fill-rule="evenodd" clip-rule="evenodd" d="M8.63412 3.13081C7.79245 3.13081 6.98525 3.47287 6.3901 4.08174C5.79496 4.69063 5.46059 5.51644 5.46059 6.37753C5.46059 7.23861 5.79496 8.06443 6.3901 8.6733C6.98525 9.28218 7.79245 9.62425 8.63412 9.62425C9.47579 9.62425 10.283 9.28218 10.8782 8.6733C11.4733 8.06443 11.8077 7.23861 11.8077 6.37753C11.8077 5.51644 11.4733 4.69063 10.8782 4.08174C10.283 3.47287 9.47579 3.13081 8.63412 3.13081ZM3.08044 6.37753C3.08033 5.43577 3.30903 4.50875 3.74598 3.67985C4.18293 2.85096 4.81441 2.14618 5.58365 1.62889C6.35288 1.11161 7.23574 0.798056 8.15279 0.71645C9.06986 0.634827 9.99238 0.787699 10.8374 1.1613C11.6823 1.53492 12.4233 2.11754 12.9936 2.8568C13.5639 3.59605 13.9456 4.46873 14.1045 5.39636C14.2633 6.32399 14.1943 7.27747 13.9036 8.17104C13.6129 9.0646 13.1097 9.87024 12.4392 10.5155C13.7036 11.143 14.8014 12.0734 15.6395 13.2275C16.4777 14.3817 17.0313 15.7257 17.2534 17.1453C17.303 17.4643 17.2265 17.7904 17.0408 18.0518C16.8553 18.3131 16.5759 18.4883 16.2641 18.5389C15.9523 18.5896 15.6335 18.5113 15.3781 18.3214C15.1226 18.1316 14.9513 17.8458 14.9018 17.5268C14.6617 16.0031 13.8991 14.6166 12.7506 13.6158C11.6021 12.6151 10.1427 12.0654 8.63412 12.0654C7.12551 12.0654 5.66619 12.6151 4.51767 13.6158C3.36916 14.6166 2.60651 16.0031 2.3664 17.5268C2.34182 17.6847 2.28705 17.8362 2.20525 17.9725C2.12343 18.1089 2.01618 18.2274 1.88962 18.3212C1.76305 18.4152 1.61964 18.4826 1.46758 18.5198C1.31552 18.5571 1.15778 18.5633 1.00337 18.5381C0.848963 18.513 0.700909 18.457 0.567666 18.3732C0.434422 18.2896 0.318596 18.1798 0.2268 18.0503C0.135004 17.9209 0.0690357 17.7742 0.0326639 17.6185C-0.0037084 17.463 -0.0097735 17.3016 0.014815 17.1437C0.237493 15.7245 0.791338 14.3813 1.62939 13.2277C2.46746 12.0742 3.56503 11.1444 4.82906 10.5171C4.27612 9.98633 3.8356 9.34503 3.53483 8.63298C3.23404 7.92091 3.07938 7.15324 3.08044 6.37753ZM17.3613 3.94249C17.0457 3.94249 16.743 4.07075 16.5199 4.29909C16.2966 4.52742 16.1713 4.83709 16.1713 5.16001C16.1713 5.48291 16.2966 5.79259 16.5199 6.02093C16.743 6.24925 17.0457 6.37753 17.3613 6.37753C17.8981 6.37756 18.4192 6.56329 18.8401 6.90455C19.2607 7.24582 19.5563 7.72255 19.6787 8.25735C19.801 8.79215 19.7431 9.35359 19.5143 9.85045C19.2855 10.3473 18.8992 10.7505 18.4181 10.9944C18.2198 11.0953 18.0529 11.2509 17.9362 11.4436C17.8196 11.6364 17.7579 11.8586 17.758 12.0853V12.6567C17.7577 12.9302 17.8474 13.1958 18.0126 13.4108C18.1777 13.6258 18.4089 13.7776 18.6688 13.8417C20.573 14.3109 22.0994 15.7898 22.6707 17.6924C22.7159 17.8458 22.7905 17.9886 22.8898 18.1126C22.9893 18.2365 23.1116 18.3393 23.25 18.4147C23.3882 18.4901 23.5397 18.5368 23.6957 18.5522C23.8517 18.5677 24.0091 18.5513 24.1591 18.5044C24.3088 18.4573 24.4482 18.3805 24.5688 18.2782C24.6895 18.176 24.7893 18.0503 24.8625 17.9084C24.9356 17.7667 24.9807 17.6115 24.995 17.4518C25.0094 17.2922 24.9927 17.1312 24.9461 16.9781C24.6284 15.9239 24.1045 14.9468 23.4061 14.1064C22.7078 13.2657 21.8497 12.5792 20.884 12.0885C21.5042 11.3904 21.9131 10.5229 22.0606 9.59154C22.2081 8.66019 22.088 7.70505 21.715 6.84222C21.3417 5.97939 20.7316 5.24602 19.9589 4.73123C19.186 4.21645 18.2836 3.94243 17.3613 3.94249Z" fill="#C0F4FE"/>
<path d="M26.6 4.4V8H27.4V4.4H31V3.6H27.4V0L26.6 3.49691e-08V3.6H23V4.4H26.6Z" fill="#C0F4FE"/>
</svg>
