<svg width="31" height="19" viewBox="0 0 31 19" fill="none" xmlns="http://www.w3.org/2000/svg">
<path fill-rule="evenodd" clip-rule="evenodd" d="M8.63412 3.13087C7.79245 3.13087 6.98525 3.47293 6.3901 4.0818C5.79496 4.69069 5.46059 5.5165 5.46059 6.37759C5.46059 7.23867 5.79496 8.06449 6.3901 8.67336C6.98525 9.28224 7.79245 9.62431 8.63412 9.62431C9.47579 9.62431 10.283 9.28224 10.8782 8.67336C11.4733 8.06449 11.8077 7.23867 11.8077 6.37759C11.8077 5.5165 11.4733 4.69069 10.8782 4.0818C10.283 3.47293 9.47579 3.13087 8.63412 3.13087ZM3.08044 6.37759C3.08033 5.43583 3.30903 4.50881 3.74598 3.67991C4.18293 2.85102 4.81441 2.14624 5.58365 1.62895C6.35288 1.11167 7.23574 0.798117 8.15279 0.716511C9.06986 0.634888 9.99238 0.78776 10.8374 1.16136C11.6823 1.53498 12.4233 2.1176 12.9936 2.85686C13.5639 3.59611 13.9456 4.4688 14.1045 5.39642C14.2633 6.32405 14.1943 7.27753 13.9036 8.1711C13.6129 9.06466 13.1097 9.8703 12.4392 10.5155C13.7036 11.1431 14.8014 12.0734 15.6395 13.2276C16.4777 14.3817 17.0313 15.7257 17.2534 17.1453C17.303 17.4643 17.2265 17.7905 17.0408 18.0518C16.8553 18.3132 16.5759 18.4883 16.2641 18.539C15.9523 18.5896 15.6335 18.5114 15.3781 18.3215C15.1226 18.1317 14.9513 17.8458 14.9018 17.5268C14.6617 16.0031 13.8991 14.6166 12.7506 13.6159C11.6021 12.6151 10.1427 12.0655 8.63412 12.0655C7.12551 12.0655 5.66619 12.6151 4.51767 13.6159C3.36916 14.6166 2.60651 16.0031 2.3664 17.5268C2.34182 17.6848 2.28705 17.8362 2.20525 17.9726C2.12343 18.109 2.01618 18.2275 1.88962 18.3213C1.76305 18.4153 1.61964 18.4827 1.46758 18.5198C1.31552 18.5572 1.15778 18.5633 1.00337 18.5382C0.848963 18.513 0.700909 18.457 0.567666 18.3733C0.434422 18.2896 0.318596 18.1799 0.2268 18.0504C0.135004 17.921 0.0690357 17.7742 0.0326639 17.6186C-0.0037084 17.463 -0.0097735 17.3017 0.014815 17.1437C0.237493 15.7246 0.791338 14.3814 1.62939 13.2278C2.46746 12.0742 3.56503 11.1444 4.82906 10.5172C4.27612 9.98639 3.8356 9.3451 3.53483 8.63304C3.23404 7.92097 3.07938 7.1533 3.08044 6.37759ZM17.3613 3.94255C17.0457 3.94255 16.743 4.07081 16.5199 4.29915C16.2966 4.52748 16.1713 4.83715 16.1713 5.16007C16.1713 5.48297 16.2966 5.79265 16.5199 6.02099C16.743 6.24931 17.0457 6.37759 17.3613 6.37759C17.8981 6.37762 18.4192 6.56335 18.8401 6.90462C19.2607 7.24588 19.5563 7.72261 19.6787 8.25741C19.801 8.79221 19.7431 9.35365 19.5143 9.85051C19.2855 10.3474 18.8992 10.7505 18.4181 10.9944C18.2198 11.0954 18.0529 11.251 17.9362 11.4437C17.8196 11.6364 17.7579 11.8586 17.758 12.0853V12.6568C17.7577 12.9302 17.8474 13.1959 18.0126 13.4108C18.1777 13.6258 18.4089 13.7777 18.6688 13.8418C20.573 14.311 22.0994 15.7898 22.6707 17.6924C22.7159 17.8458 22.7905 17.9887 22.8898 18.1127C22.9893 18.2366 23.1116 18.3393 23.25 18.4148C23.3882 18.4901 23.5397 18.5369 23.6957 18.5523C23.8517 18.5677 24.0091 18.5513 24.1591 18.5044C24.3088 18.4573 24.4482 18.3806 24.5688 18.2783C24.6895 18.176 24.7893 18.0504 24.8625 17.9085C24.9356 17.7668 24.9807 17.6116 24.995 17.4518C25.0094 17.2923 24.9927 17.1312 24.9461 16.9781C24.6284 15.9239 24.1045 14.9468 23.4061 14.1064C22.7078 13.2658 21.8497 12.5793 20.884 12.0886C21.5042 11.3904 21.9131 10.523 22.0606 9.5916C22.2081 8.66025 22.088 7.70511 21.715 6.84228C21.3417 5.97945 20.7316 5.24608 19.9589 4.73129C19.186 4.21651 18.2836 3.94249 17.3613 3.94255Z" fill="#E11515"/>
<path d="M26.6 4.40006V8.00006H27.4V4.40006H31V3.60006H27.4V6.10352e-05L26.6 6.10701e-05V3.60006H23V4.40006H26.6Z" fill="#E11515"/>
</svg>
