<svg width="40" height="40" viewBox="0 0 40 40" fill="none" xmlns="http://www.w3.org/2000/svg">
<circle cx="20" cy="20" r="19" stroke="#C0F4FE" stroke-width="2"/>
<path fill-rule="evenodd" clip-rule="evenodd" d="M15.6341 13.4357C14.7925 13.4357 13.9853 13.7778 13.3901 14.3867C12.795 14.9956 12.4606 15.8214 12.4606 16.6825C12.4606 17.5435 12.795 18.3694 13.3901 18.9782C13.9853 19.5871 14.7925 19.9292 15.6341 19.9292C16.4758 19.9292 17.283 19.5871 17.8782 18.9782C18.4733 18.3694 18.8077 17.5435 18.8077 16.6825C18.8077 15.8214 18.4733 14.9956 17.8782 14.3867C17.283 13.7778 16.4758 13.4357 15.6341 13.4357ZM10.0804 16.6825C10.0803 15.7407 10.309 14.8137 10.746 13.9848C11.1829 13.1559 11.8144 12.4511 12.5836 11.9338C13.3529 11.4165 14.2357 11.103 15.1528 11.0214C16.0699 10.9398 16.9924 11.0926 17.8374 11.4662C18.6823 11.8398 19.4233 12.4225 19.9936 13.1617C20.5639 13.901 20.9456 14.7737 21.1045 15.7013C21.2633 16.6289 21.1943 17.5824 20.9036 18.476C20.6129 19.3695 20.1097 20.1752 19.4392 20.8204C20.7036 21.448 21.8014 22.3783 22.6395 23.5324C23.4777 24.6866 24.0313 26.0306 24.2534 27.4502C24.303 27.7692 24.2265 28.0953 24.0408 28.3567C23.8553 28.6181 23.5759 28.7932 23.2641 28.8439C22.9523 28.8945 22.6335 28.8163 22.3781 28.6263C22.1226 28.4366 21.9513 28.1507 21.9018 27.8317C21.6617 26.308 20.8991 24.9215 19.7506 23.9207C18.6021 22.92 17.1427 22.3704 15.6341 22.3704C14.1255 22.3704 12.6662 22.92 11.5177 23.9207C10.3692 24.9215 9.60651 26.308 9.3664 27.8317C9.34182 27.9897 9.28704 28.1411 9.20525 28.2775C9.12343 28.4138 9.01618 28.5323 8.88962 28.6262C8.76305 28.7202 8.61964 28.7875 8.46758 28.8247C8.31552 28.8621 8.15778 28.8682 8.00337 28.8431C7.84896 28.8179 7.70091 28.7619 7.56767 28.6781C7.43442 28.5945 7.3186 28.4848 7.2268 28.3552C7.135 28.2259 7.06904 28.0791 7.03266 27.9234C6.99629 27.7679 6.99023 27.6065 7.01482 27.4486C7.23749 26.0294 7.79134 24.6863 8.62939 23.5327C9.46746 22.3791 10.565 21.4493 11.8291 20.822C11.2761 20.2913 10.8356 19.65 10.5348 18.9379C10.234 18.2258 10.0794 17.4582 10.0804 16.6825ZM24.3613 14.2474C24.0457 14.2474 23.743 14.3757 23.5199 14.604C23.2966 14.8324 23.1713 15.142 23.1713 15.4649C23.1713 15.7878 23.2966 16.0975 23.5199 16.3259C23.743 16.5542 24.0457 16.6825 24.3613 16.6825C24.8981 16.6825 25.4192 16.8682 25.8401 17.2095C26.2607 17.5507 26.5563 18.0275 26.6787 18.5623C26.801 19.0971 26.7431 19.6585 26.5143 20.1554C26.2855 20.6523 25.8992 21.0554 25.4181 21.2993C25.2198 21.4002 25.0529 21.5558 24.9362 21.7486C24.8196 21.9413 24.7579 22.1635 24.758 22.3902V22.9616C24.7577 23.2351 24.8474 23.5007 25.0126 23.7157C25.1777 23.9307 25.4089 24.0826 25.6688 24.1467C27.573 24.6158 29.0994 26.0947 29.6707 27.9973C29.7159 28.1507 29.7905 28.2936 29.8898 28.4176C29.9893 28.5414 30.1116 28.6442 30.25 28.7197C30.3882 28.795 30.5397 28.8418 30.6957 28.8572C30.8517 28.8726 31.0091 28.8562 31.1591 28.8093C31.3088 28.7622 31.4482 28.6854 31.5688 28.5832C31.6895 28.4809 31.7893 28.3552 31.8625 28.2134C31.9356 28.0716 31.9807 27.9164 31.995 27.7567C32.0094 27.5971 31.9927 27.4361 31.9461 27.283C31.6284 26.2288 31.1045 25.2517 30.4061 24.4113C29.7078 23.5707 28.8497 22.8842 27.884 22.3934C28.5042 21.6953 28.9131 20.8278 29.0606 19.8965C29.2081 18.9651 29.088 18.01 28.715 17.1471C28.3417 16.2843 27.7316 15.5509 26.9589 15.0362C26.186 14.5214 25.2836 14.2474 24.3613 14.2474Z" fill="#C0F4FE"/>
</svg>
