<svg width="29" height="29" viewBox="0 0 29 29" fill="none" xmlns="http://www.w3.org/2000/svg">
<path fill-rule="evenodd" clip-rule="evenodd" d="M1.375 14.6243C1.375 7.65515 6.94309 1.375 14.6273 1.375C22.1395 1.375 27.8266 7.53591 27.8266 14.5845C27.8266 22.7593 21.1608 27.8338 14.6008 27.8338C12.4318 27.8338 10.0247 27.2508 8.09371 26.1114C7.4192 25.7006 6.8505 25.3959 6.12308 25.6344L3.45146 26.4294C2.77694 26.6413 2.16858 26.1114 2.36697 25.3959L3.2531 22.4281C3.39859 22.0173 3.37215 21.5801 3.16053 21.2356C2.02311 19.1423 1.375 16.8501 1.375 14.6243ZM12.8815 14.6243C12.8815 15.565 13.6353 16.3202 14.5744 16.3334C15.5134 16.3334 16.2673 15.565 16.2673 14.6375C16.2673 13.6968 15.5134 12.9416 14.5744 12.9416C13.6486 12.9284 12.8815 13.6968 12.8815 14.6243ZM18.9786 14.6375C18.9786 15.565 19.7324 16.3334 20.6715 16.3334C21.6105 16.3334 22.3644 15.565 22.3644 14.6375C22.3644 13.6968 21.6105 12.9416 20.6715 12.9416C19.7324 12.9416 18.9786 13.6968 18.9786 14.6375ZM8.47725 16.3334C7.55145 16.3334 6.78438 15.565 6.78438 14.6375C6.78438 13.6968 7.53822 12.9416 8.47725 12.9416C9.41629 12.9416 10.1702 13.6968 10.1702 14.6375C10.1702 15.565 9.41629 16.3202 8.47725 16.3334Z" stroke="#C0F4FE"/>
</svg>
