<svg width="35" height="35" viewBox="0 0 35 35" fill="none" xmlns="http://www.w3.org/2000/svg">
<path fill-rule="evenodd" clip-rule="evenodd" d="M4.375 17.6243C4.375 10.6551 9.94309 4.375 17.6273 4.375C25.1395 4.375 30.8266 10.5359 30.8266 17.5845C30.8266 25.7593 24.1608 30.8338 17.6008 30.8338C15.4318 30.8338 13.0247 30.2508 11.0937 29.1114C10.4192 28.7006 9.8505 28.3959 9.12308 28.6344L6.45146 29.4294C5.77694 29.6413 5.16858 29.1114 5.36697 28.3959L6.2531 25.4281C6.39859 25.0173 6.37215 24.5801 6.16053 24.2356C5.02311 22.1423 4.375 19.8501 4.375 17.6243ZM15.8815 17.6243C15.8815 18.565 16.6353 19.3202 17.5744 19.3334C18.5134 19.3334 19.2673 18.565 19.2673 17.6375C19.2673 16.6968 18.5134 15.9416 17.5744 15.9416C16.6486 15.9284 15.8815 16.6968 15.8815 17.6243ZM21.9786 17.6375C21.9786 18.565 22.7324 19.3334 23.6715 19.3334C24.6105 19.3334 25.3644 18.565 25.3644 17.6375C25.3644 16.6968 24.6105 15.9416 23.6715 15.9416C22.7324 15.9416 21.9786 16.6968 21.9786 17.6375ZM11.4773 19.3334C10.5514 19.3334 9.78438 18.565 9.78438 17.6375C9.78438 16.6968 10.5382 15.9416 11.4773 15.9416C12.4163 15.9416 13.1702 16.6968 13.1702 17.6375C13.1702 18.565 12.4163 19.3202 11.4773 19.3334Z" stroke="#649be5" stroke-width="2"/>
</svg>
