<svg width="201" height="201" viewBox="0 0 201 201" fill="none" xmlns="http://www.w3.org/2000/svg">
<g style="mix-blend-mode:hard-light" filter="url(#filter0_f_315_811)">
<path fill-rule="evenodd" clip-rule="evenodd" d="M92.2882 82H108.02C114.171 82 118.29 86.3241 118.29 92.7558V107.601C118.29 114.015 114.171 118.337 108.02 118.337H92.2882C86.137 118.337 82 114.015 82 107.601V92.7558C82 86.3241 86.137 82 92.2882 82ZM105.607 105.619C106.224 105.003 106.224 104.004 105.607 103.386L102.377 100.152L105.607 96.9164C106.224 96.3005 106.224 95.2831 105.607 94.6654C104.99 94.0458 103.992 94.0458 103.357 94.6654L100.145 97.8976L96.9152 94.6654C96.2801 94.0458 95.2821 94.0458 94.6652 94.6654C94.0482 95.2831 94.0482 96.3005 94.6652 96.9164L97.895 100.152L94.6652 103.368C94.0482 104.004 94.0482 105.003 94.6652 105.619C94.9736 105.928 95.391 106.093 95.7902 106.093C96.2075 106.093 96.6067 105.928 96.9152 105.619L100.145 102.405L103.375 105.619C103.683 105.948 104.082 106.093 104.482 106.093C104.899 106.093 105.298 105.928 105.607 105.619Z" stroke="#C0F4FE" stroke-width="4.438"/>
</g>
<g style="mix-blend-mode:hard-light" filter="url(#filter1_f_315_811)">
<path fill-rule="evenodd" clip-rule="evenodd" d="M92.2882 82H108.02C114.171 82 118.29 86.3241 118.29 92.7558V107.601C118.29 114.015 114.171 118.337 108.02 118.337H92.2882C86.137 118.337 82 114.015 82 107.601V92.7558C82 86.3241 86.137 82 92.2882 82ZM105.607 105.619C106.224 105.003 106.224 104.004 105.607 103.386L102.377 100.152L105.607 96.9164C106.224 96.3005 106.224 95.2831 105.607 94.6654C104.99 94.0458 103.992 94.0458 103.357 94.6654L100.145 97.8976L96.9152 94.6654C96.2801 94.0458 95.2821 94.0458 94.6652 94.6654C94.0482 95.2831 94.0482 96.3005 94.6652 96.9164L97.895 100.152L94.6652 103.368C94.0482 104.004 94.0482 105.003 94.6652 105.619C94.9736 105.928 95.391 106.093 95.7902 106.093C96.2075 106.093 96.6067 105.928 96.9152 105.619L100.145 102.405L103.375 105.619C103.683 105.948 104.082 106.093 104.482 106.093C104.899 106.093 105.298 105.928 105.607 105.619Z" stroke="#C0F4FE" stroke-opacity="0.5" stroke-width="5.80354"/>
</g>
<g style="mix-blend-mode:hard-light" filter="url(#filter2_ddi_315_811)">
<path fill-rule="evenodd" clip-rule="evenodd" d="M92.2882 82H108.02C114.171 82 118.29 86.3241 118.29 92.7558V107.601C118.29 114.015 114.171 118.337 108.02 118.337H92.2882C86.137 118.337 82 114.015 82 107.601V92.7558C82 86.3241 86.137 82 92.2882 82ZM105.607 105.619C106.224 105.003 106.224 104.004 105.607 103.386L102.377 100.152L105.607 96.9164C106.224 96.3005 106.224 95.2831 105.607 94.6654C104.99 94.0458 103.992 94.0458 103.357 94.6654L100.145 97.8976L96.9152 94.6654C96.2801 94.0458 95.2821 94.0458 94.6652 94.6654C94.0482 95.2831 94.0482 96.3005 94.6652 96.9164L97.895 100.152L94.6652 103.368C94.0482 104.004 94.0482 105.003 94.6652 105.619C94.9736 105.928 95.391 106.093 95.7902 106.093C96.2075 106.093 96.6067 105.928 96.9152 105.619L100.145 102.405L103.375 105.619C103.683 105.948 104.082 106.093 104.482 106.093C104.899 106.093 105.298 105.928 105.607 105.619Z" stroke="#C0F4FE" stroke-opacity="0.2" stroke-width="4.438"/>
</g>
<g filter="url(#filter3_f_315_811)">
<path fill-rule="evenodd" clip-rule="evenodd" d="M92.2882 82H108.02C114.171 82 118.29 86.3241 118.29 92.7558V107.601C118.29 114.015 114.171 118.337 108.02 118.337H92.2882C86.137 118.337 82 114.015 82 107.601V92.7558C82 86.3241 86.137 82 92.2882 82ZM105.607 105.619C106.224 105.003 106.224 104.004 105.607 103.386L102.377 100.152L105.607 96.9164C106.224 96.3005 106.224 95.2831 105.607 94.6654C104.99 94.0458 103.992 94.0458 103.357 94.6654L100.145 97.8976L96.9152 94.6654C96.2801 94.0458 95.2821 94.0458 94.6652 94.6654C94.0482 95.2831 94.0482 96.3005 94.6652 96.9164L97.895 100.152L94.6652 103.368C94.0482 104.004 94.0482 105.003 94.6652 105.619C94.9736 105.928 95.391 106.093 95.7902 106.093C96.2075 106.093 96.6067 105.928 96.9152 105.619L100.145 102.405L103.375 105.619C103.683 105.948 104.082 106.093 104.482 106.093C104.899 106.093 105.298 105.928 105.607 105.619Z" stroke="#C0F4FE" stroke-width="2.73108"/>
</g>
<g filter="url(#filter4_f_315_811)">
<path fill-rule="evenodd" clip-rule="evenodd" d="M92.2882 82H108.02C114.171 82 118.29 86.3241 118.29 92.7558V107.601C118.29 114.015 114.171 118.337 108.02 118.337H92.2882C86.137 118.337 82 114.015 82 107.601V92.7558C82 86.3241 86.137 82 92.2882 82ZM105.607 105.619C106.224 105.003 106.224 104.004 105.607 103.386L102.377 100.152L105.607 96.9164C106.224 96.3005 106.224 95.2831 105.607 94.6654C104.99 94.0458 103.992 94.0458 103.357 94.6654L100.145 97.8976L96.9152 94.6654C96.2801 94.0458 95.2821 94.0458 94.6652 94.6654C94.0482 95.2831 94.0482 96.3005 94.6652 96.9164L97.895 100.152L94.6652 103.368C94.0482 104.004 94.0482 105.003 94.6652 105.619C94.9736 105.928 95.391 106.093 95.7902 106.093C96.2075 106.093 96.6067 105.928 96.9152 105.619L100.145 102.405L103.375 105.619C103.683 105.948 104.082 106.093 104.482 106.093C104.899 106.093 105.298 105.928 105.607 105.619Z" stroke="white" stroke-width="1.36554"/>
</g>
<g filter="url(#filter5_b_315_811)">
<path fill-rule="evenodd" clip-rule="evenodd" d="M92.2843 82H108.01C114.159 82 118.276 86.3181 118.276 92.7407V107.566C118.276 113.97 114.159 118.286 108.01 118.286H92.2843C86.1354 118.286 82 113.97 82 107.566V92.7407C82 86.3181 86.1354 82 92.2843 82ZM105.598 105.586C106.214 104.971 106.214 103.973 105.598 103.356L102.369 100.127L105.598 96.8955C106.214 96.2805 106.214 95.2645 105.598 94.6476C104.981 94.0289 103.984 94.0289 103.349 94.6476L100.138 97.8753L96.9095 94.6476C96.2747 94.0289 95.2771 94.0289 94.6604 94.6476C94.0437 95.2645 94.0437 96.2805 94.6604 96.8955L97.889 100.127L94.6604 103.338C94.0437 103.973 94.0437 104.971 94.6604 105.586C94.9688 105.895 95.3859 106.06 95.7849 106.06C96.2021 106.06 96.6012 105.895 96.9095 105.586L100.138 102.377L103.367 105.586C103.675 105.914 104.074 106.06 104.473 106.06C104.89 106.06 105.289 105.895 105.598 105.586Z" fill="#C0F4FE" fill-opacity="0.01"/>
</g>
<defs>
<filter id="filter0_f_315_811" x="0.187454" y="0.186966" width="199.916" height="199.963" filterUnits="userSpaceOnUse" color-interpolation-filters="sRGB">
<feFlood flood-opacity="0" result="BackgroundImageFix"/>
<feBlend mode="normal" in="SourceGraphic" in2="BackgroundImageFix" result="shape"/>
<feGaussianBlur stdDeviation="39.7969" result="effect1_foregroundBlur_315_811"/>
</filter>
<filter id="filter1_f_315_811" x="52.5664" y="52.5669" width="95.1563" height="95.2036" filterUnits="userSpaceOnUse" color-interpolation-filters="sRGB">
<feFlood flood-opacity="0" result="BackgroundImageFix"/>
<feBlend mode="normal" in="SourceGraphic" in2="BackgroundImageFix" result="shape"/>
<feGaussianBlur stdDeviation="13.2656" result="effect1_foregroundBlur_315_811"/>
</filter>
<filter id="filter2_ddi_315_811" x="45.2906" y="71.8214" width="109.71" height="109.757" filterUnits="userSpaceOnUse" color-interpolation-filters="sRGB">
<feFlood flood-opacity="0" result="BackgroundImageFix"/>
<feColorMatrix in="SourceAlpha" type="matrix" values="0 0 0 0 0 0 0 0 0 0 0 0 0 0 0 0 0 0 127 0" result="hardAlpha"/>
<feOffset dy="17.2453"/>
<feGaussianBlur stdDeviation="6.63282"/>
<feColorMatrix type="matrix" values="0 0 0 0 0.0382353 0 0 0 0 0.0647059 0 0 0 0 0.261765 0 0 0 0.7 0"/>
<feBlend mode="multiply" in2="BackgroundImageFix" result="effect1_dropShadow_315_811"/>
<feColorMatrix in="SourceAlpha" type="matrix" values="0 0 0 0 0 0 0 0 0 0 0 0 0 0 0 0 0 0 127 0" result="hardAlpha"/>
<feOffset dy="26.5313"/>
<feGaussianBlur stdDeviation="17.2453"/>
<feColorMatrix type="matrix" values="0 0 0 0 0.0764706 0 0 0 0 0.129412 0 0 0 0 0.523529 0 0 0 1 0"/>
<feBlend mode="color-dodge" in2="effect1_dropShadow_315_811" result="effect2_dropShadow_315_811"/>
<feBlend mode="normal" in="SourceGraphic" in2="effect2_dropShadow_315_811" result="shape"/>
<feColorMatrix in="SourceAlpha" type="matrix" values="0 0 0 0 0 0 0 0 0 0 0 0 0 0 0 0 0 0 127 0" result="hardAlpha"/>
<feOffset dx="-1.72453" dy="3.44906"/>
<feGaussianBlur stdDeviation="0.862266"/>
<feComposite in2="hardAlpha" operator="arithmetic" k2="-1" k3="1"/>
<feColorMatrix type="matrix" values="0 0 0 0 1 0 0 0 0 1 0 0 0 0 1 0 0 0 0.5 0"/>
<feBlend mode="normal" in2="shape" result="effect3_innerShadow_315_811"/>
</filter>
<filter id="filter3_f_315_811" x="79.952" y="79.9515" width="40.387" height="40.4339" filterUnits="userSpaceOnUse" color-interpolation-filters="sRGB">
<feFlood flood-opacity="0" result="BackgroundImageFix"/>
<feBlend mode="normal" in="SourceGraphic" in2="BackgroundImageFix" result="shape"/>
<feGaussianBlur stdDeviation="0.341384" result="effect1_foregroundBlur_315_811"/>
</filter>
<filter id="filter4_f_315_811" x="80.8612" y="80.8622" width="38.5666" height="38.613" filterUnits="userSpaceOnUse" color-interpolation-filters="sRGB">
<feFlood flood-opacity="0" result="BackgroundImageFix"/>
<feBlend mode="normal" in="SourceGraphic" in2="BackgroundImageFix" result="shape"/>
<feGaussianBlur stdDeviation="0.22759" result="effect1_foregroundBlur_315_811"/>
</filter>
<filter id="filter5_b_315_811" x="66" y="66" width="68.2773" height="68.2861" filterUnits="userSpaceOnUse" color-interpolation-filters="sRGB">
<feFlood flood-opacity="0" result="BackgroundImageFix"/>
<feGaussianBlur in="BackgroundImage" stdDeviation="8"/>
<feComposite in2="SourceAlpha" operator="in" result="effect1_backgroundBlur_315_811"/>
<feBlend mode="normal" in="SourceGraphic" in2="effect1_backgroundBlur_315_811" result="shape"/>
</filter>
</defs>
</svg>
