<svg width="22" height="22" viewBox="0 0 22 22" fill="none" xmlns="http://www.w3.org/2000/svg">
<g style="mix-blend-mode:hard-light">
<path fill-rule="evenodd" clip-rule="evenodd" d="M6.66997 1H15.34C18.73 1 21 3.38 21 6.92V15.091C21 18.621 18.73 21 15.34 21H6.66997C3.27997 21 1 18.621 1 15.091V6.92C1 3.38 3.27997 1 6.66997 1ZM14.01 14C14.35 13.661 14.35 13.111 14.01 12.771L12.2299 10.991L14.01 9.21C14.35 8.871 14.35 8.311 14.01 7.971C13.67 7.63 13.12 7.63 12.77 7.971L11 9.75L9.21995 7.971C8.86995 7.63 8.31994 7.63 7.97994 7.971C7.63994 8.311 7.63994 8.871 7.97994 9.21L9.75996 10.991L7.97994 12.761C7.63994 13.111 7.63994 13.661 7.97994 14C8.14994 14.17 8.37995 14.261 8.59994 14.261C8.82994 14.261 9.04995 14.17 9.21995 14L11 12.231L12.78 14C12.95 14.181 13.17 14.261 13.39 14.261C13.62 14.261 13.84 14.17 14.01 14Z" stroke="#C0F4FE" stroke-width="2"/>
</g>
</svg>
