<svg width="5" height="20" viewBox="0 0 5 20" fill="none" xmlns="http://www.w3.org/2000/svg">
<path d="M1 3.5C1 2.67157 1.67157 2 2.5 2V2C3.32843 2 4 2.67157 4 3.5V3.5C4 4.32843 3.32843 5 2.5 5V5C1.67157 5 1 4.32843 1 3.5V3.5Z" fill="#C0F4FE"/>
<path d="M1 10C1 9.17157 1.67157 8.5 2.5 8.5V8.5C3.32843 8.5 4 9.17157 4 10V10C4 10.8284 3.32843 11.5 2.5 11.5V11.5C1.67157 11.5 1 10.8284 1 10V10Z" fill="#C0F4FE"/>
<path d="M4 16.5C4 15.6716 3.32843 15 2.5 15V15C1.67157 15 1 15.6716 1 16.5V16.5C1 17.3284 1.67157 18 2.5 18V18C3.32843 18 4 17.3284 4 16.5V16.5Z" fill="#C0F4FE"/>
</svg>
