<svg width="32" height="32" viewBox="0 0 32 32" fill="none" xmlns="http://www.w3.org/2000/svg">
<rect x="1.5" y="1.5" width="29" height="29" rx="14.5" stroke="#649be5" stroke-width="3"/>
<g filter="url(#filter0_b_1206_6280)">
<path d="M23.6478 15.957C23.6537 15.5075 23.4103 15.0945 23.015 14.8777L13.8026 9.81704C13.39 9.58387 12.9035 9.61257 12.5146 9.87814C12.1186 10.1482 11.9158 10.791 12.0265 11.2551L12.8861 14.8584C12.9743 15.2279 13.305 15.488 13.6854 15.4864L18.8125 15.4698C19.075 15.4645 19.2879 15.6774 19.2826 15.9399C19.2818 16.198 19.072 16.4078 18.8094 16.4131L13.6775 16.4257C13.297 16.4265 12.9647 16.6879 12.8741 17.058L11.9831 20.6759C11.8749 21.1034 11.9981 21.5302 12.2997 21.8318C12.3352 21.8673 12.3751 21.9071 12.4151 21.9382C12.8057 22.2395 13.3173 22.2779 13.7541 22.0451L22.9991 17.0314C23.3958 16.821 23.6419 16.4064 23.6478 15.957Z" fill="#649be5"/>
</g>
<defs>
<filter id="filter0_b_1206_6280" x="-4.05469" y="-6.3418" width="43.7031" height="44.5371" filterUnits="userSpaceOnUse" color-interpolation-filters="sRGB">
<feFlood flood-opacity="0" result="BackgroundImageFix"/>
<feGaussianBlur in="BackgroundImage" stdDeviation="8"/>
<feComposite in2="SourceAlpha" operator="in" result="effect1_backgroundBlur_1206_6280"/>
<feBlend mode="normal" in="SourceGraphic" in2="effect1_backgroundBlur_1206_6280" result="shape"/>
</filter>
</defs>
</svg>
