<svg width="36" height="36" viewBox="0 0 36 36" fill="none" xmlns="http://www.w3.org/2000/svg">
<path fill-rule="evenodd" clip-rule="evenodd" d="M11.329 11.3581C11.5399 11.1474 11.8259 11.0291 12.124 11.0291C12.4221 11.0291 12.7081 11.1474 12.919 11.3581L17.749 16.1881L22.579 11.3581C22.6821 11.2475 22.8063 11.1589 22.9443 11.0974C23.0823 11.0359 23.2312 11.0028 23.3823 11.0002C23.5333 10.9975 23.6833 11.0253 23.8234 11.0819C23.9635 11.1385 24.0907 11.2227 24.1975 11.3295C24.3045 11.4363 24.3886 11.5636 24.4452 11.7037C24.5017 11.8437 24.5296 11.9938 24.5269 12.1448C24.5242 12.2959 24.4912 12.4449 24.4297 12.5829C24.3682 12.7209 24.2796 12.8451 24.169 12.9481L19.339 17.7781L24.169 22.6081C24.2796 22.7111 24.3682 22.8353 24.4297 22.9733C24.4912 23.1113 24.5242 23.2603 24.5269 23.4113C24.5296 23.5624 24.5017 23.7124 24.4452 23.8525C24.3886 23.9926 24.3045 24.1198 24.1975 24.2266C24.0907 24.3335 23.9635 24.4177 23.8234 24.4742C23.6833 24.5308 23.5333 24.5587 23.3823 24.556C23.2312 24.5533 23.0823 24.5203 22.9443 24.4588C22.8063 24.3973 22.6821 24.3086 22.579 24.1981L17.749 19.3681L12.919 24.1981C12.7057 24.3968 12.4237 24.505 12.1322 24.4999C11.8408 24.4946 11.5627 24.3766 11.3566 24.1705C11.1504 23.9644 11.0324 23.6863 11.0272 23.3948C11.0221 23.1034 11.1303 22.8214 11.329 22.6081L16.159 17.7781L11.329 12.9481C11.1183 12.7371 11 12.4512 11 12.1531C11 11.8549 11.1183 11.569 11.329 11.3581Z" fill="#C0F4FE"/>
<rect x="1.5" y="1.5" width="33" height="33" rx="16.5" stroke="#C0F4FE" stroke-width="3"/>
</svg>
