<svg width="48" height="48" viewBox="0 0 48 48" fill="none" xmlns="http://www.w3.org/2000/svg">
<path d="M32.948 10.8161L37.184 15.0501L32.948 10.8161ZM35.672 7.08614L24.218 18.5401C23.6262 19.1311 23.2226 19.8841 23.058 20.7041L22 26.0001L27.296 24.9401C28.116 24.7761 28.868 24.3741 29.46 23.7821L40.914 12.3281C41.2582 11.9839 41.5312 11.5753 41.7175 11.1256C41.9038 10.6759 41.9997 10.1939 41.9997 9.70714C41.9997 9.22038 41.9038 8.73838 41.7175 8.28867C41.5312 7.83895 41.2582 7.43034 40.914 7.08614C40.5698 6.74195 40.1612 6.46892 39.7115 6.28264C39.2618 6.09636 38.7798 6.00049 38.293 6.00049C37.8062 6.00049 37.3242 6.09636 36.8745 6.28264C36.4248 6.46892 36.0162 6.74195 35.672 7.08614V7.08614Z" stroke="#C0F4FE" stroke-width="4" stroke-linecap="round" stroke-linejoin="round"/>
<path d="M38 30V36C38 37.0609 37.5786 38.0783 36.8284 38.8284C36.0783 39.5786 35.0609 40 34 40H12C10.9391 40 9.92172 39.5786 9.17157 38.8284C8.42143 38.0783 8 37.0609 8 36V14C8 12.9391 8.42143 11.9217 9.17157 11.1716C9.92172 10.4214 10.9391 10 12 10H18" stroke="#C0F4FE" stroke-width="4" stroke-linecap="round" stroke-linejoin="round"/>
</svg>
