<?xml version="1.0" standalone="no"?>
<!DOCTYPE svg PUBLIC "-//W3C//DTD SVG 20010904//EN"
 "http://www.w3.org/TR/2001/REC-SVG-20010904/DTD/svg10.dtd">
<svg version="1.0" xmlns="http://www.w3.org/2000/svg"
 width="512.000000pt" height="512.000000pt" viewBox="0 0 512.000000 512.000000"
 preserveAspectRatio="xMidYMid meet">

<g transform="translate(0.000000,512.000000) scale(0.100000,-0.100000)"
fill="#E11515" stroke="#fff">
<path d="M2365 5109 c-870 -72 -1623 -559 -2048 -1324 -294 -528 -385 -1178
-251 -1785 171 -773 716 -1442 1446 -1771 496 -224 1068 -282 1608 -163 872
192 1604 861 1874 1712 137 433 158 902 60 1339 -234 1047 -1102 1840 -2164
1977 -152 20 -389 27 -525 15z m-555 -1599 c27 -8 119 -94 392 -367 l358 -358
362 361 c395 394 388 388 477 364 49 -13 106 -74 115 -123 17 -88 13 -93 -367
-474 l-351 -353 346 -348 c349 -349 378 -384 378 -450 0 -49 -41 -113 -90
-139 -50 -27 -87 -29 -135 -9 -22 10 -162 144 -382 366 l-347 351 -355 -354
c-377 -375 -391 -386 -467 -374 -90 15 -152 97 -139 185 6 46 15 55 366 407
l359 360 -345 345 c-232 232 -352 359 -366 388 -30 60 -20 120 28 173 47 52
98 68 163 49z"/>
</g>
</svg>
