<svg width="230" height="240" viewBox="0 0 230 240" fill="none" xmlns="http://www.w3.org/2000/svg">
<g style="mix-blend-mode:hard-light" filter="url(#filter0_f_305_613)">
<path fill-rule="evenodd" clip-rule="evenodd" d="M114.017 157.549C114.446 157.767 114.925 157.879 115.404 157.875C115.883 157.871 116.358 157.756 116.79 157.534L130.592 150.325C134.506 148.286 137.571 146.007 139.962 143.353C145.161 137.571 148.001 130.192 147.95 122.582L147.786 97.4823C147.771 94.5913 145.827 92.0117 142.953 91.0739L117.277 82.6566C115.731 82.1451 114.037 82.1562 112.518 82.6826L86.9388 91.4001C84.0802 92.3749 82.172 94.973 82.1876 97.8677L82.351 122.949C82.4017 130.57 85.3383 137.916 90.6231 143.639C93.0377 146.255 96.1298 148.501 100.087 150.507L114.017 157.549ZM110.363 128.049C110.94 128.59 111.687 128.857 112.435 128.849C113.183 128.846 113.927 128.572 114.495 128.023L129.579 113.494C130.712 112.4 130.7 110.643 129.555 109.565C128.407 108.486 126.557 108.494 125.423 109.587L112.392 122.137L107.057 117.126C105.908 116.047 104.062 116.059 102.925 117.152C101.792 118.245 101.803 120.002 102.952 121.081L110.363 128.049Z" stroke="#3772FF" stroke-width="4.438"/>
</g>
<g style="mix-blend-mode:hard-light" filter="url(#filter1_f_305_613)">
<path fill-rule="evenodd" clip-rule="evenodd" d="M114.017 157.549C114.446 157.767 114.925 157.879 115.404 157.875C115.883 157.871 116.358 157.756 116.79 157.534L130.592 150.325C134.506 148.286 137.571 146.007 139.962 143.353C145.161 137.571 148.001 130.192 147.95 122.582L147.786 97.4823C147.771 94.5913 145.827 92.0117 142.953 91.0739L117.277 82.6566C115.731 82.1451 114.037 82.1562 112.518 82.6826L86.9388 91.4001C84.0802 92.3749 82.172 94.973 82.1876 97.8677L82.351 122.949C82.4017 130.57 85.3383 137.916 90.6231 143.639C93.0377 146.255 96.1298 148.501 100.087 150.507L114.017 157.549ZM110.363 128.049C110.94 128.59 111.687 128.857 112.435 128.849C113.183 128.846 113.927 128.572 114.495 128.023L129.579 113.494C130.712 112.4 130.7 110.643 129.555 109.565C128.407 108.486 126.557 108.494 125.423 109.587L112.392 122.137L107.057 117.126C105.908 116.047 104.062 116.059 102.925 117.152C101.792 118.245 101.803 120.002 102.952 121.081L110.363 128.049Z" stroke="#3772FF" stroke-width="5.80354"/>
</g>
<g style="mix-blend-mode:hard-light" filter="url(#filter2_ddi_305_613)">
<path fill-rule="evenodd" clip-rule="evenodd" d="M114.017 157.549C114.446 157.767 114.925 157.879 115.404 157.875C115.883 157.871 116.358 157.756 116.79 157.534L130.592 150.325C134.506 148.286 137.571 146.007 139.962 143.353C145.161 137.571 148.001 130.192 147.95 122.582L147.786 97.4823C147.771 94.5913 145.827 92.0117 142.953 91.0739L117.277 82.6566C115.731 82.1451 114.037 82.1562 112.518 82.6826L86.9388 91.4001C84.0802 92.3749 82.172 94.973 82.1876 97.8677L82.351 122.949C82.4017 130.57 85.3383 137.916 90.6231 143.639C93.0377 146.255 96.1298 148.501 100.087 150.507L114.017 157.549ZM110.363 128.049C110.94 128.59 111.687 128.857 112.435 128.849C113.183 128.846 113.927 128.572 114.495 128.023L129.579 113.494C130.712 112.4 130.7 110.643 129.555 109.565C128.407 108.486 126.557 108.494 125.423 109.587L112.392 122.137L107.057 117.126C105.908 116.047 104.062 116.059 102.925 117.152C101.792 118.245 101.803 120.002 102.952 121.081L110.363 128.049Z" stroke="#3772FF" stroke-opacity="0.2" stroke-width="4.438"/>
</g>
<g filter="url(#filter3_f_305_613)">
<path fill-rule="evenodd" clip-rule="evenodd" d="M114.017 157.549C114.446 157.767 114.925 157.879 115.404 157.875C115.883 157.871 116.358 157.756 116.79 157.534L130.592 150.325C134.506 148.286 137.571 146.007 139.962 143.353C145.161 137.571 148.001 130.192 147.95 122.582L147.786 97.4823C147.771 94.5913 145.827 92.0117 142.953 91.0739L117.277 82.6566C115.731 82.1451 114.037 82.1562 112.518 82.6826L86.9388 91.4001C84.0802 92.3749 82.172 94.973 82.1876 97.8677L82.351 122.949C82.4017 130.57 85.3383 137.916 90.6231 143.639C93.0377 146.255 96.1298 148.501 100.087 150.507L114.017 157.549ZM110.363 128.049C110.94 128.59 111.687 128.857 112.435 128.849C113.183 128.846 113.927 128.572 114.495 128.023L129.579 113.494C130.712 112.4 130.7 110.643 129.555 109.565C128.407 108.486 126.557 108.494 125.423 109.587L112.392 122.137L107.057 117.126C105.908 116.047 104.062 116.059 102.925 117.152C101.792 118.245 101.803 120.002 102.952 121.081L110.363 128.049Z" stroke="#3772FF" stroke-width="2.73108"/>
</g>
<g filter="url(#filter4_f_305_613)">
<path fill-rule="evenodd" clip-rule="evenodd" d="M114.017 157.549C114.446 157.767 114.925 157.879 115.404 157.875C115.883 157.871 116.358 157.756 116.79 157.534L130.592 150.325C134.506 148.286 137.571 146.007 139.962 143.353C145.161 137.571 148.001 130.192 147.95 122.582L147.786 97.4823C147.771 94.5913 145.827 92.0117 142.953 91.0739L117.277 82.6566C115.731 82.1451 114.037 82.1562 112.518 82.6826L86.9388 91.4001C84.0802 92.3749 82.172 94.973 82.1876 97.8677L82.351 122.949C82.4017 130.57 85.3383 137.916 90.6231 143.639C93.0377 146.255 96.1298 148.501 100.087 150.507L114.017 157.549ZM110.363 128.049C110.94 128.59 111.687 128.857 112.435 128.849C113.183 128.846 113.927 128.572 114.495 128.023L129.579 113.494C130.712 112.4 130.7 110.643 129.555 109.565C128.407 108.486 126.557 108.494 125.423 109.587L112.392 122.137L107.057 117.126C105.908 116.047 104.062 116.059 102.925 117.152C101.792 118.245 101.803 120.002 102.952 121.081L110.363 128.049Z" stroke="white" stroke-width="1.36554"/>
</g>
<g filter="url(#filter5_b_305_613)">
<path fill-rule="evenodd" clip-rule="evenodd" d="M114.005 157.443C114.434 157.662 114.912 157.773 115.391 157.769C115.87 157.765 116.345 157.651 116.777 157.428L130.574 150.23C134.487 148.194 137.55 145.918 139.941 143.268C145.138 137.494 147.976 130.124 147.925 122.526L147.762 97.461C147.746 94.5741 145.804 91.998 142.93 91.0616L117.264 82.6561C115.718 82.1453 114.025 82.1564 112.507 82.682L86.937 91.3873C84.0795 92.3607 82.172 94.9553 82.1876 97.846L82.351 122.892C82.4016 130.502 85.337 137.838 90.6199 143.553C93.0335 146.166 96.1245 148.409 100.08 150.411L114.005 157.443ZM110.353 127.985C110.929 128.525 111.676 128.792 112.424 128.784C113.171 128.78 113.915 128.507 114.483 127.959L129.561 113.45C130.694 112.358 130.682 110.604 129.538 109.527C128.389 108.45 126.54 108.457 125.407 109.549L112.381 122.081L107.048 117.077C105.899 116 104.054 116.011 102.917 117.103C101.784 118.195 101.796 119.949 102.944 121.026L110.353 127.985Z" fill="#3772FF" fill-opacity="0.01"/>
</g>
<defs>
<filter id="filter0_f_305_613" x="0.374954" y="0.467239" width="229.389" height="239.221" filterUnits="userSpaceOnUse" color-interpolation-filters="sRGB">
<feFlood flood-opacity="0" result="BackgroundImageFix"/>
<feBlend mode="normal" in="SourceGraphic" in2="BackgroundImageFix" result="shape"/>
<feGaussianBlur stdDeviation="39.7969" result="effect1_foregroundBlur_305_613"/>
</filter>
<filter id="filter1_f_305_613" x="52.7539" y="52.8472" width="124.629" height="134.461" filterUnits="userSpaceOnUse" color-interpolation-filters="sRGB">
<feFlood flood-opacity="0" result="BackgroundImageFix"/>
<feBlend mode="normal" in="SourceGraphic" in2="BackgroundImageFix" result="shape"/>
<feGaussianBlur stdDeviation="13.2656" result="effect1_foregroundBlur_305_613"/>
</filter>
<filter id="filter2_ddi_305_613" x="45.4781" y="72.1017" width="139.182" height="149.014" filterUnits="userSpaceOnUse" color-interpolation-filters="sRGB">
<feFlood flood-opacity="0" result="BackgroundImageFix"/>
<feColorMatrix in="SourceAlpha" type="matrix" values="0 0 0 0 0 0 0 0 0 0 0 0 0 0 0 0 0 0 127 0" result="hardAlpha"/>
<feOffset dy="17.2453"/>
<feGaussianBlur stdDeviation="6.63282"/>
<feColorMatrix type="matrix" values="0 0 0 0 0.0382353 0 0 0 0 0.0647059 0 0 0 0 0.261765 0 0 0 0.7 0"/>
<feBlend mode="multiply" in2="BackgroundImageFix" result="effect1_dropShadow_305_613"/>
<feColorMatrix in="SourceAlpha" type="matrix" values="0 0 0 0 0 0 0 0 0 0 0 0 0 0 0 0 0 0 127 0" result="hardAlpha"/>
<feOffset dy="26.5313"/>
<feGaussianBlur stdDeviation="17.2453"/>
<feColorMatrix type="matrix" values="0 0 0 0 0.0764706 0 0 0 0 0.129412 0 0 0 0 0.523529 0 0 0 1 0"/>
<feBlend mode="color-dodge" in2="effect1_dropShadow_305_613" result="effect2_dropShadow_305_613"/>
<feBlend mode="normal" in="SourceGraphic" in2="effect2_dropShadow_305_613" result="shape"/>
<feColorMatrix in="SourceAlpha" type="matrix" values="0 0 0 0 0 0 0 0 0 0 0 0 0 0 0 0 0 0 127 0" result="hardAlpha"/>
<feOffset dx="-1.72453" dy="3.44906"/>
<feGaussianBlur stdDeviation="0.862266"/>
<feComposite in2="hardAlpha" operator="arithmetic" k2="-1" k3="1"/>
<feColorMatrix type="matrix" values="0 0 0 0 1 0 0 0 0 1 0 0 0 0 1 0 0 0 0.5 0"/>
<feBlend mode="normal" in2="shape" result="effect3_innerShadow_305_613"/>
</filter>
<filter id="filter3_f_305_613" x="80.1395" y="80.2318" width="69.8597" height="79.6917" filterUnits="userSpaceOnUse" color-interpolation-filters="sRGB">
<feFlood flood-opacity="0" result="BackgroundImageFix"/>
<feBlend mode="normal" in="SourceGraphic" in2="BackgroundImageFix" result="shape"/>
<feGaussianBlur stdDeviation="0.341384" result="effect1_foregroundBlur_305_613"/>
</filter>
<filter id="filter4_f_305_613" x="81.0487" y="81.1425" width="68.0393" height="77.8703" filterUnits="userSpaceOnUse" color-interpolation-filters="sRGB">
<feFlood flood-opacity="0" result="BackgroundImageFix"/>
<feBlend mode="normal" in="SourceGraphic" in2="BackgroundImageFix" result="shape"/>
<feGaussianBlur stdDeviation="0.22759" result="effect1_foregroundBlur_305_613"/>
</filter>
<filter id="filter5_b_305_613" x="66.1875" y="66.2803" width="97.7383" height="107.489" filterUnits="userSpaceOnUse" color-interpolation-filters="sRGB">
<feFlood flood-opacity="0" result="BackgroundImageFix"/>
<feGaussianBlur in="BackgroundImage" stdDeviation="8"/>
<feComposite in2="SourceAlpha" operator="in" result="effect1_backgroundBlur_305_613"/>
<feBlend mode="normal" in="SourceGraphic" in2="effect1_backgroundBlur_305_613" result="shape"/>
</filter>
</defs>
</svg>
