<?xml version="1.0" standalone="no"?>
<!DOCTYPE svg PUBLIC "-//W3C//DTD SVG 20010904//EN"
 "http://www.w3.org/TR/2001/REC-SVG-20010904/DTD/svg10.dtd">
<svg version="1.0" xmlns="http://www.w3.org/2000/svg"
 width="512.000000pt" height="512.000000pt" viewBox="0 0 512.000000 512.000000"
 preserveAspectRatio="xMidYMid meet">
<metadata>
Created by potrace 1.16, written by Peter Selinger 2001-2019
</metadata>
<g transform="translate(0.000000,512.000000) scale(0.100000,-0.100000)"
fill="#C0F4FE" stroke="none">
<path d="M930 5100 c-41 -11 -118 -41 -170 -67 -80 -40 -110 -62 -190 -143
-128 -128 -192 -242 -225 -398 -22 -100 -22 -3764 0 -3864 30 -143 94 -264
200 -376 112 -120 234 -192 389 -232 77 -20 107 -20 1301 -20 l1221 0 52 26
c97 48 148 158 123 267 -16 72 -52 121 -114 157 l-52 30 -1155 0 c-747 0
-1178 4 -1219 10 -35 6 -81 20 -103 31 -60 31 -124 102 -147 165 -21 55 -21
61 -21 1874 0 1813 0 1819 21 1874 23 63 87 134 147 165 22 11 68 25 103 31
41 6 471 10 1215 10 l1150 0 52 26 c97 48 148 158 123 267 -16 72 -52 121
-114 157 l-52 30 -1230 -1 c-1180 0 -1233 -1 -1305 -19z"/>
<path d="M3327 3934 c-133 -42 -204 -211 -141 -337 9 -17 188 -204 397 -414
l382 -383 -973 0 c-1073 0 -1010 4 -1081 -63 -49 -47 -71 -100 -71 -177 0 -77
22 -130 71 -177 71 -67 8 -63 1081 -63 l973 0 -382 -382 c-209 -211 -388 -396
-396 -413 -76 -156 39 -345 210 -348 115 -2 85 -28 747 632 413 411 614 619
627 646 23 50 25 151 4 203 -19 46 -1201 1234 -1257 1262 -51 27 -132 33 -191
14z"/>
</g>
</svg>
