<svg width="36" height="36" viewBox="0 0 36 36" fill="none" xmlns="http://www.w3.org/2000/svg">
<path fill-rule="evenodd" clip-rule="evenodd" d="M17.563 12.0688C17.6933 12.1286 17.8038 12.2246 17.8812 12.3453C17.9587 12.466 17.9999 12.6064 18 12.7498V23.2498C18.0001 23.3933 17.959 23.5337 17.8817 23.6546C17.8044 23.7754 17.694 23.8715 17.5637 23.9315C17.4334 23.9915 17.2886 24.0129 17.1465 23.9931C17.0044 23.9733 16.8709 23.9131 16.762 23.8198L13.472 20.9998H11.75C11.2859 20.9998 10.8408 20.8154 10.5126 20.4872C10.1844 20.159 10 19.7139 10 19.2498V16.7498C10 15.7838 10.784 14.9998 11.75 14.9998H13.473L16.762 12.1798C16.871 12.0867 17.0043 12.0268 17.1463 12.0071C17.2882 11.9874 17.4328 12.0088 17.563 12.0688ZM16.5 14.3798L14.238 16.3188C14.1021 16.4354 13.9291 16.4996 13.75 16.4998H11.75C11.6837 16.4998 11.6201 16.5261 11.5732 16.573C11.5263 16.6199 11.5 16.6835 11.5 16.7498V19.2498C11.5 19.3878 11.612 19.4998 11.75 19.4998H13.75C13.9289 19.4997 14.102 19.5635 14.238 19.6798L16.5 21.6198V14.3798ZM22.596 12.3418C22.7366 12.2013 22.9272 12.1225 23.126 12.1225C23.3248 12.1225 23.5154 12.2013 23.656 12.3418C24.3989 13.0847 24.9882 13.9666 25.3903 14.9372C25.7924 15.9079 25.9993 16.9482 25.9993 17.9988C25.9993 19.0494 25.7924 20.0897 25.3903 21.0604C24.9882 22.031 24.3989 22.9129 23.656 23.6558C23.5138 23.7883 23.3258 23.8604 23.1315 23.857C22.9372 23.8535 22.7518 23.7748 22.6144 23.6374C22.477 23.5 22.3983 23.3146 22.3948 23.1203C22.3914 22.926 22.4635 22.738 22.596 22.5958C23.1997 21.9922 23.6785 21.2756 24.0052 20.4869C24.332 19.6983 24.5001 18.853 24.5001 17.9993C24.5001 17.1456 24.332 16.3003 24.0052 15.5117C23.6785 14.723 23.1997 14.0064 22.596 13.4028C22.4555 13.2622 22.3767 13.0715 22.3767 12.8728C22.3767 12.674 22.4555 12.4834 22.596 12.3428V12.3418ZM21.536 14.4628C21.3953 14.3221 21.2045 14.2431 21.0055 14.2431C20.8065 14.2431 20.6157 14.3221 20.475 14.4628C20.3343 14.6035 20.2553 14.7943 20.2553 14.9933C20.2553 15.1923 20.3343 15.3831 20.475 15.5238C20.8 15.8488 21.0579 16.2347 21.2338 16.6593C21.4097 17.084 21.5003 17.5391 21.5003 17.9988C21.5003 18.4585 21.4097 18.9136 21.2338 19.3383C21.0579 19.7629 20.8 20.1488 20.475 20.4738C20.4013 20.5425 20.3422 20.6253 20.3012 20.7173C20.2602 20.8093 20.2382 20.9086 20.2364 21.0093C20.2346 21.11 20.2532 21.21 20.2909 21.3034C20.3286 21.3968 20.3847 21.4816 20.456 21.5528C20.5272 21.6241 20.612 21.6802 20.7054 21.7179C20.7988 21.7556 20.8988 21.7742 20.9995 21.7724C21.1002 21.7706 21.1995 21.7486 21.2915 21.7076C21.3835 21.6666 21.4663 21.6075 21.535 21.5338C22.4724 20.5962 22.9989 19.3246 22.9989 17.9988C22.9989 16.673 22.4724 15.4014 21.535 14.4638L21.536 14.4628Z" fill="#649be5"/>
<circle cx="18" cy="18" r="17" stroke="#649be5" stroke-width="2"/>
</svg>
