<?xml version="1.0" standalone="no"?>
<!DOCTYPE svg PUBLIC "-//W3C//DTD SVG 20010904//EN"
 "http://www.w3.org/TR/2001/REC-SVG-20010904/DTD/svg10.dtd">
<svg version="1.0" xmlns="http://www.w3.org/2000/svg"
 width="512.000000pt" height="512.000000pt" viewBox="0 0 512.000000 512.000000"
 preserveAspectRatio="xMidYMid meet">

<g transform="translate(0.000000,512.000000) scale(0.100000,-0.100000)"
fill="#fff" stroke="none">
<path d="M2475 5114 c-163 -42 -286 -128 -355 -249 -32 -57 -70 -173 -70 -215
0 -24 -7 -30 -57 -51 -348 -137 -635 -403 -807 -746 -96 -193 -141 -368 -156
-608 -16 -249 -29 -350 -65 -490 -91 -363 -302 -768 -614 -1180 -106 -140
-132 -198 -139 -312 -10 -182 85 -340 250 -413 94 -41 399 -107 668 -145 422
-59 864 -86 1430 -86 566 0 1008 27 1430 86 270 38 574 104 668 146 165 72
261 232 250 416 -7 107 -34 170 -124 288 -325 429 -544 848 -634 1216 -32 130
-45 232 -60 474 -15 240 -60 415 -156 608 -169 336 -454 604 -784 737 -73 29
-80 35 -80 60 0 42 -38 158 -70 215 -57 99 -162 186 -275 226 -59 20 -206 34
-250 23z"/>
<path d="M1920 419 c0 -34 70 -131 150 -211 73 -72 102 -93 181 -131 121 -58
180 -72 309 -72 129 0 188 14 310 72 81 39 107 58 185 137 55 55 102 113 120
148 16 31 27 58 25 60 -3 2 -93 0 -200 -5 -206 -9 -1035 -2 -1063 9 -11 4 -17
1 -17 -7z"/>
</g>
</svg>
