<svg width="36" height="36" viewBox="0 0 36 36" fill="none" xmlns="http://www.w3.org/2000/svg">
<path d="M7.3647 21.2715C6.00909 21.2715 4.91016 20.1725 4.91016 18.8169C4.91016 17.4613 6.00909 16.3624 7.3647 16.3624C8.72031 16.3624 9.81925 17.4613 9.81925 18.8169C9.81925 20.1725 8.72031 21.2715 7.3647 21.2715Z" fill="#3772FF"/>
<path d="M18.0011 21.2715C16.6455 21.2715 15.5465 20.1725 15.5465 18.8169C15.5465 17.4613 16.6455 16.3624 18.0011 16.3624C19.3567 16.3624 20.4556 17.4613 20.4556 18.8169C20.4556 20.1725 19.3567 21.2715 18.0011 21.2715Z" fill="#3772FF"/>
<path d="M28.6374 16.3624C27.2818 16.3624 26.1829 17.4613 26.1829 18.8169C26.1829 20.1725 27.2818 21.2715 28.6374 21.2715C29.993 21.2715 31.092 20.1725 31.092 18.8169C31.092 17.4613 29.993 16.3624 28.6374 16.3624Z" fill="#3772FF"/>
<circle cx="18" cy="18" r="17" stroke="#3772FF" stroke-width="2"/>
</svg>
