<svg width="40" height="40" viewBox="0 0 40 40" fill="none" xmlns="http://www.w3.org/2000/svg">
<path fill-rule="evenodd" clip-rule="evenodd" d="M24.9051 11.1812C25.3816 11.1877 25.8592 11.1942 26.3384 11.1992C31.4875 11.1992 35.2417 14.8749 35.2417 19.9509V26.471C35.2417 31.547 31.4875 35.2227 26.3384 35.2227C24.2758 35.2665 22.2132 35.2811 20.1358 35.2811C18.0583 35.2811 15.966 35.2665 13.9034 35.2227C8.75424 35.2227 5 31.547 5 26.471V19.9509C5 14.8749 8.75425 11.1992 13.9182 11.1992C15.8621 11.17 17.8505 11.1408 19.8686 11.1408V10.8928C19.8686 9.88639 19.0228 9.06956 18.0138 9.06956H16.5447C14.8679 9.06956 13.5027 7.72763 13.5027 6.09397C13.5027 5.49593 14.0072 5 14.6156 5C15.2389 5 15.7286 5.49593 15.7286 6.09397C15.7286 6.53155 16.0995 6.88162 16.5447 6.88162H18.0138C20.2544 6.89621 22.0796 8.69032 22.0945 10.8783V11.1554C23.0299 11.1554 23.9654 11.1682 24.9051 11.1812ZM18.3847 24.2976H16.8266V25.8438C16.8266 26.4418 16.3222 26.9377 15.7138 26.9377C15.0905 26.9377 14.6008 26.4418 14.6008 25.8438V24.2976H13.0279C12.4195 24.2976 11.915 23.8163 11.915 23.2036C11.915 22.6056 12.4195 22.1097 13.0279 22.1097H14.6008V20.5781C14.6008 19.9801 15.0905 19.4841 15.7138 19.4841C16.3222 19.4841 16.8266 19.9801 16.8266 20.5781V22.1097H18.3847C18.9931 22.1097 19.4976 22.6056 19.4976 23.2036C19.4976 23.8163 18.9931 24.2976 18.3847 24.2976ZM24.6913 21.8325H24.8396C25.448 21.8325 25.9526 21.3512 25.9526 20.7386C25.9526 20.1405 25.448 19.6446 24.8396 19.6446H24.6913C24.0681 19.6446 23.5784 20.1405 23.5784 20.7386C23.5784 21.3512 24.0681 21.8325 24.6913 21.8325ZM27.2287 26.8502H27.3771C27.9855 26.8502 28.4901 26.3689 28.4901 25.7562C28.4901 25.1582 27.9855 24.6623 27.3771 24.6623H27.2287C26.604 24.6623 26.1158 25.1582 26.1158 25.7562C26.1158 26.3689 26.604 26.8502 27.2287 26.8502Z" stroke="#C0F4FE" stroke-width="2"/>
</svg>
