<svg width="32" height="32" viewBox="0 0 32 32" fill="none" xmlns="http://www.w3.org/2000/svg">
<path fill-rule="evenodd" clip-rule="evenodd" d="M20.9051 7.18115C21.3816 7.18769 21.8592 7.19425 22.3384 7.19916C27.4875 7.19916 31.2417 10.8749 31.2417 15.9509V22.471C31.2417 27.547 27.4875 31.2227 22.3384 31.2227C20.2758 31.2665 18.2132 31.2811 16.1358 31.2811C14.0583 31.2811 11.966 31.2665 9.90335 31.2227C4.75424 31.2227 1 27.547 1 22.471V15.9509C1 10.8749 4.75425 7.19916 9.9182 7.19916C11.8621 7.16998 13.8505 7.14081 15.8686 7.14081V6.89284C15.8686 5.88639 15.0228 5.06956 14.0138 5.06956H12.5447C10.8679 5.06956 9.50271 3.72763 9.50271 2.09397C9.50271 1.49593 10.0072 1 10.6156 1C11.2389 1 11.7286 1.49593 11.7286 2.09397C11.7286 2.53155 12.0995 2.88162 12.5447 2.88162H14.0138C16.2544 2.89621 18.0796 4.69032 18.0945 6.87826V7.1554C19.0299 7.1554 19.9654 7.16825 20.9051 7.18115ZM14.3847 20.2976H12.8266V21.8438C12.8266 22.4418 12.3222 22.9377 11.7138 22.9377C11.0905 22.9377 10.6008 22.4418 10.6008 21.8438V20.2976H9.02785C8.41946 20.2976 7.91498 19.8163 7.91498 19.2036C7.91498 18.6056 8.41946 18.1097 9.02785 18.1097H10.6008V16.5781C10.6008 15.9801 11.0905 15.4841 11.7138 15.4841C12.3222 15.4841 12.8266 15.9801 12.8266 16.5781V18.1097H14.3847C14.9931 18.1097 15.4976 18.6056 15.4976 19.2036C15.4976 19.8163 14.9931 20.2976 14.3847 20.2976ZM20.6913 17.8325H20.8396C21.448 17.8325 21.9526 17.3512 21.9526 16.7386C21.9526 16.1405 21.448 15.6446 20.8396 15.6446H20.6913C20.0681 15.6446 19.5784 16.1405 19.5784 16.7386C19.5784 17.3512 20.0681 17.8325 20.6913 17.8325ZM23.2287 22.8502H23.3771C23.9855 22.8502 24.4901 22.3689 24.4901 21.7562C24.4901 21.1582 23.9855 20.6623 23.3771 20.6623H23.2287C22.604 20.6623 22.1158 21.1582 22.1158 21.7562C22.1158 22.3689 22.604 22.8502 23.2287 22.8502Z" stroke="#E11515"/>
</svg>
