<svg width="51" height="52" viewBox="0 0 51 52" fill="none" xmlns="http://www.w3.org/2000/svg">
<g clip-path="url(#clip0_1400_5213)">
<g style="mix-blend-mode:hard-light" filter="url(#filter0_f_1400_5213)">
<g style="mix-blend-mode:hard-light">
<path d="M36.4739 15.2496C36.4739 22.119 30.8649 27.627 23.8659 27.627C16.8684 27.627 11.2578 22.119 11.2578 15.2496C11.2578 8.3805 16.8684 2.875 23.8659 2.875C30.8649 2.875 36.4739 8.3805 36.4739 15.2496Z" stroke="#C0F4FE" stroke-width="4.438"/>
</g>
<g style="mix-blend-mode:hard-light">
<path d="M23.865 49.65C13.5345 49.65 4.8125 48.002 4.8125 41.64C4.8125 35.276 13.5893 33.686 23.865 33.686C34.197 33.686 42.917 35.335 42.917 41.696C42.917 48.06 34.14 49.65 23.865 49.65Z" stroke="#C0F4FE" stroke-width="4.438"/>
</g>
</g>
<g style="mix-blend-mode:hard-light" filter="url(#filter1_f_1400_5213)">
<g style="mix-blend-mode:hard-light">
<path d="M36.4739 15.2496C36.4739 22.119 30.8649 27.627 23.8659 27.627C16.8684 27.627 11.2578 22.119 11.2578 15.2496C11.2578 8.3805 16.8684 2.875 23.8659 2.875C30.8649 2.875 36.4739 8.3805 36.4739 15.2496Z" stroke="#C0F4FE" stroke-opacity="0.5" stroke-width="5.80354"/>
</g>
<g style="mix-blend-mode:hard-light">
<path d="M23.865 49.65C13.5345 49.65 4.8125 48.002 4.8125 41.64C4.8125 35.276 13.5893 33.686 23.865 33.686C34.197 33.686 42.917 35.335 42.917 41.696C42.917 48.06 34.14 49.65 23.865 49.65Z" stroke="#C0F4FE" stroke-opacity="0.5" stroke-width="5.80354"/>
</g>
</g>
<g style="mix-blend-mode:hard-light" filter="url(#filter2_ddi_1400_5213)">
<g style="mix-blend-mode:hard-light">
<path d="M36.4739 15.2496C36.4739 22.119 30.8649 27.627 23.8659 27.627C16.8684 27.627 11.2578 22.119 11.2578 15.2496C11.2578 8.3805 16.8684 2.875 23.8659 2.875C30.8649 2.875 36.4739 8.3805 36.4739 15.2496Z" stroke="#C0F4FE" stroke-opacity="0.2" stroke-width="4.438"/>
</g>
<g style="mix-blend-mode:hard-light">
<path d="M23.865 49.65C13.5345 49.65 4.8125 48.002 4.8125 41.64C4.8125 35.276 13.5893 33.686 23.865 33.686C34.197 33.686 42.917 35.335 42.917 41.696C42.917 48.06 34.14 49.65 23.865 49.65Z" stroke="#C0F4FE" stroke-opacity="0.2" stroke-width="4.438"/>
</g>
</g>
<g filter="url(#filter3_f_1400_5213)">
<path d="M36.4739 15.2496C36.4739 22.119 30.8649 27.627 23.8659 27.627C16.8684 27.627 11.2578 22.119 11.2578 15.2496C11.2578 8.3805 16.8684 2.875 23.8659 2.875C30.8649 2.875 36.4739 8.3805 36.4739 15.2496Z" stroke="#C0F4FE" stroke-width="2.73108"/>
<path d="M23.865 49.65C13.5345 49.65 4.8125 48.002 4.8125 41.64C4.8125 35.276 13.5893 33.686 23.865 33.686C34.197 33.686 42.917 35.335 42.917 41.696C42.917 48.06 34.14 49.65 23.865 49.65Z" stroke="#C0F4FE" stroke-width="2.73108"/>
</g>
<g filter="url(#filter4_f_1400_5213)">
<path d="M36.4739 15.2496C36.4739 22.119 30.8649 27.627 23.8659 27.627C16.8684 27.627 11.2578 22.119 11.2578 15.2496C11.2578 8.3805 16.8684 2.875 23.8659 2.875C30.8649 2.875 36.4739 8.3805 36.4739 15.2496Z" stroke="white" stroke-width="1.36554"/>
<path d="M23.865 49.65C13.5345 49.65 4.8125 48.002 4.8125 41.64C4.8125 35.276 13.5893 33.686 23.865 33.686C34.197 33.686 42.917 35.335 42.917 41.696C42.917 48.06 34.14 49.65 23.865 49.65Z" stroke="white" stroke-width="1.36554"/>
</g>
<path d="M36.4604 15.2322C36.4604 22.092 30.8544 27.592 23.8574 27.592C16.8625 27.592 11.2539 22.092 11.2539 15.2322C11.2539 8.3728 16.8625 2.875 23.8574 2.875C30.8544 2.875 36.4604 8.3728 36.4604 15.2322Z" fill="#C0F4FE" fill-opacity="0.01"/>
<path d="M23.858 49.5851C13.5313 49.5851 4.8125 47.9381 4.8125 41.5861C4.8125 35.2311 13.5861 33.6431 23.858 33.6431C34.186 33.6431 42.903 35.2891 42.903 41.6421C42.903 47.9971 34.129 49.5851 23.858 49.5851Z" fill="#C0F4FE" fill-opacity="0.01"/>
</g>
<defs>
<filter id="filter0_f_1400_5213" x="-77.0001" y="-78.938" width="201.731" height="210.401" filterUnits="userSpaceOnUse" color-interpolation-filters="sRGB">
<feFlood flood-opacity="0" result="BackgroundImageFix"/>
<feBlend mode="normal" in="SourceGraphic" in2="BackgroundImageFix" result="shape"/>
<feGaussianBlur stdDeviation="39.7969" result="effect1_foregroundBlur_1400_5213"/>
</filter>
<filter id="filter1_f_1400_5213" x="-24.621" y="-26.5581" width="96.9726" height="105.641" filterUnits="userSpaceOnUse" color-interpolation-filters="sRGB">
<feFlood flood-opacity="0" result="BackgroundImageFix"/>
<feBlend mode="normal" in="SourceGraphic" in2="BackgroundImageFix" result="shape"/>
<feGaussianBlur stdDeviation="13.2656" result="effect1_foregroundBlur_1400_5213"/>
</filter>
<filter id="filter2_ddi_1400_5213" x="-31.8969" y="-7.30354" width="111.524" height="120.195" filterUnits="userSpaceOnUse" color-interpolation-filters="sRGB">
<feFlood flood-opacity="0" result="BackgroundImageFix"/>
<feColorMatrix in="SourceAlpha" type="matrix" values="0 0 0 0 0 0 0 0 0 0 0 0 0 0 0 0 0 0 127 0" result="hardAlpha"/>
<feOffset dy="17.2453"/>
<feGaussianBlur stdDeviation="6.63282"/>
<feColorMatrix type="matrix" values="0 0 0 0 0.0382353 0 0 0 0 0.0647059 0 0 0 0 0.261765 0 0 0 0.7 0"/>
<feBlend mode="multiply" in2="BackgroundImageFix" result="effect1_dropShadow_1400_5213"/>
<feColorMatrix in="SourceAlpha" type="matrix" values="0 0 0 0 0 0 0 0 0 0 0 0 0 0 0 0 0 0 127 0" result="hardAlpha"/>
<feOffset dy="26.5313"/>
<feGaussianBlur stdDeviation="17.2453"/>
<feColorMatrix type="matrix" values="0 0 0 0 0.0764706 0 0 0 0 0.129412 0 0 0 0 0.523529 0 0 0 1 0"/>
<feBlend mode="color-dodge" in2="effect1_dropShadow_1400_5213" result="effect2_dropShadow_1400_5213"/>
<feBlend mode="normal" in="SourceGraphic" in2="effect2_dropShadow_1400_5213" result="shape"/>
<feColorMatrix in="SourceAlpha" type="matrix" values="0 0 0 0 0 0 0 0 0 0 0 0 0 0 0 0 0 0 127 0" result="hardAlpha"/>
<feOffset dx="-1.72453" dy="3.44906"/>
<feGaussianBlur stdDeviation="0.862266"/>
<feComposite in2="hardAlpha" operator="arithmetic" k2="-1" k3="1"/>
<feColorMatrix type="matrix" values="0 0 0 0 1 0 0 0 0 1 0 0 0 0 1 0 0 0 0.5 0"/>
<feBlend mode="normal" in2="shape" result="effect3_innerShadow_1400_5213"/>
</filter>
<filter id="filter3_f_1400_5213" x="2.76254" y="0.826509" width="42.2015" height="50.8719" filterUnits="userSpaceOnUse" color-interpolation-filters="sRGB">
<feFlood flood-opacity="0" result="BackgroundImageFix"/>
<feBlend mode="normal" in="SourceGraphic" in2="BackgroundImageFix" result="shape"/>
<feGaussianBlur stdDeviation="0.341384" result="effect1_foregroundBlur_1400_5213"/>
</filter>
<filter id="filter4_f_1400_5213" x="3.67373" y="1.7372" width="40.383" height="49.051" filterUnits="userSpaceOnUse" color-interpolation-filters="sRGB">
<feFlood flood-opacity="0" result="BackgroundImageFix"/>
<feBlend mode="normal" in="SourceGraphic" in2="BackgroundImageFix" result="shape"/>
<feGaussianBlur stdDeviation="0.22759" result="effect1_foregroundBlur_1400_5213"/>
</filter>
<clipPath id="clip0_1400_5213">
<rect width="51" height="52" fill="white"/>
</clipPath>
</defs>
</svg>
