<svg width="48" height="48" viewBox="0 0 48 48" fill="none" xmlns="http://www.w3.org/2000/svg">
<path d="M0 1.5C0 1.10218 0.158035 0.720644 0.43934 0.43934C0.720644 0.158035 1.10218 0 1.5 0L10.5 0C10.8978 0 11.2794 0.158035 11.5607 0.43934C11.842 0.720644 12 1.10218 12 1.5C12 1.89782 11.842 2.27936 11.5607 2.56066C11.2794 2.84196 10.8978 3 10.5 3H3V10.5C3 10.8978 2.84196 11.2794 2.56066 11.5607C2.27936 11.842 1.89782 12 1.5 12C1.10218 12 0.720644 11.842 0.43934 11.5607C0.158035 11.2794 0 10.8978 0 10.5V1.5ZM36 1.5C36 1.10218 36.158 0.720644 36.4393 0.43934C36.7206 0.158035 37.1022 0 37.5 0L46.5 0C46.8978 0 47.2794 0.158035 47.5607 0.43934C47.842 0.720644 48 1.10218 48 1.5V10.5C48 10.8978 47.842 11.2794 47.5607 11.5607C47.2794 11.842 46.8978 12 46.5 12C46.1022 12 45.7206 11.842 45.4393 11.5607C45.158 11.2794 45 10.8978 45 10.5V3H37.5C37.1022 3 36.7206 2.84196 36.4393 2.56066C36.158 2.27936 36 1.89782 36 1.5ZM1.5 36C1.89782 36 2.27936 36.158 2.56066 36.4393C2.84196 36.7206 3 37.1022 3 37.5V45H10.5C10.8978 45 11.2794 45.158 11.5607 45.4393C11.842 45.7206 12 46.1022 12 46.5C12 46.8978 11.842 47.2794 11.5607 47.5607C11.2794 47.842 10.8978 48 10.5 48H1.5C1.10218 48 0.720644 47.842 0.43934 47.5607C0.158035 47.2794 0 46.8978 0 46.5V37.5C0 37.1022 0.158035 36.7206 0.43934 36.4393C0.720644 36.158 1.10218 36 1.5 36ZM46.5 36C46.8978 36 47.2794 36.158 47.5607 36.4393C47.842 36.7206 48 37.1022 48 37.5V46.5C48 46.8978 47.842 47.2794 47.5607 47.5607C47.2794 47.842 46.8978 48 46.5 48H37.5C37.1022 48 36.7206 47.842 36.4393 47.5607C36.158 47.2794 36 46.8978 36 46.5C36 46.1022 36.158 45.7206 36.4393 45.4393C36.7206 45.158 37.1022 45 37.5 45H45V37.5C45 37.1022 45.158 36.7206 45.4393 36.4393C45.7206 36.158 46.1022 36 46.5 36ZM12 12H15V15H12V12Z" fill="#C0F4FE"/>
<path d="M21 6H6V21H21V6ZM9 9H18V18H9V9ZM15 33H12V36H15V33Z" fill="#C0F4FE"/>
<path d="M21 27H6V42H21V27ZM9 30H18V39H9V30ZM33 12H36V15H33V12Z" fill="#C0F4FE"/>
<path d="M27 6H42V21H27V6ZM30 9V18H39V9H30ZM24 24V30H27V33H24V36H30V30H33V36H36V33H42V30H33V24H24ZM30 30H27V27H30V30ZM42 36H39V39H33V42H42V36ZM30 42V39H24V42H30Z" fill="#C0F4FE"/>
<path d="M36 27H42V24H36V27Z" fill="#C0F4FE"/>
</svg>
