<?xml version="1.0" standalone="no"?>
<!DOCTYPE svg PUBLIC "-//W3C//DTD SVG 20010904//EN"
 "http://www.w3.org/TR/2001/REC-SVG-20010904/DTD/svg10.dtd">
<svg version="1.0" xmlns="http://www.w3.org/2000/svg"
 width="512.000000pt" height="512.000000pt" viewBox="0 0 512.000000 512.000000"
 preserveAspectRatio="xMidYMid meet">

<g transform="translate(0.000000,512.000000) scale(0.100000,-0.100000)"
fill="#444" stroke="white">
<path d="M2375 4899 c-1043 -85 -1910 -853 -2114 -1874 -96 -482 -43 -964 157
-1422 223 -510 668 -956 1182 -1183 791 -350 1686 -248 2379 272 182 137 399
367 529 560 529 791 529 1821 1 2610 -94 141 -164 225 -303 363 -234 232 -475
391 -774 511 -228 92 -458 145 -712 164 -150 11 -199 11 -345 -1z m-485 -1390
c33 -15 128 -103 357 -332 l313 -311 317 315 c352 350 362 358 465 346 136
-16 221 -156 173 -284 -15 -40 -69 -100 -334 -365 l-315 -318 315 -317 c265
-266 319 -326 334 -366 48 -128 -37 -268 -173 -284 -103 -12 -113 -4 -465 346
l-317 315 -313 -311 c-207 -208 -324 -317 -349 -328 -81 -33 -191 -12 -244 47
-54 59 -71 159 -39 236 11 25 120 142 328 350 l312 312 -312 313 c-229 229
-317 324 -332 357 -38 85 -23 169 44 236 66 65 151 81 235 43z"/>
</g>
</svg>
