<svg width="30" height="30" viewBox="0 0 30 30" fill="none" xmlns="http://www.w3.org/2000/svg">
<path fill-rule="evenodd" clip-rule="evenodd" d="M13.2261 0C5.92152 0 0 5.92152 0 13.2261C0 20.5306 5.92152 26.4522 13.2261 26.4522C16.3489 26.4522 19.219 25.3699 21.4816 23.5599L27.9217 30L30 27.9217L23.5599 21.4816C25.3699 19.219 26.4522 16.3489 26.4522 13.2261C26.4522 5.92152 20.5306 0 13.2261 0ZM2.93913 13.2261C2.93913 7.54475 7.54475 2.93913 13.2261 2.93913C18.9074 2.93913 23.513 7.54475 23.513 13.2261C23.513 18.9074 18.9074 23.513 13.2261 23.513C7.54475 23.513 2.93913 18.9074 2.93913 13.2261Z" fill="#C0F4FE"/>
</svg>
