<svg width="54" height="54" viewBox="0 0 54 54" fill="none" xmlns="http://www.w3.org/2000/svg">
<rect x="1.5" y="1.5" width="51" height="51" rx="25.5" stroke="#E11515" stroke-width="3"/>
<g filter="url(#filter0_b_1010_4278)">
<path d="M39.9042 26.9266C39.9141 26.1682 39.5034 25.4712 38.8363 25.1054L23.2904 16.5655C22.5941 16.1721 21.7732 16.2205 21.1169 16.6686C20.4487 17.1243 20.1065 18.209 20.2932 18.9923L21.7438 25.0729C21.8927 25.6964 22.4507 26.1354 23.0927 26.1325L31.7446 26.1045C32.1877 26.0956 32.5469 26.4548 32.538 26.8979C32.5366 27.3334 32.1825 27.6875 31.7395 27.6964L23.0793 27.7177C22.4373 27.719 21.8765 28.1602 21.7235 28.7846L20.22 34.8898C20.0375 35.6112 20.2454 36.3314 20.7543 36.8404C20.8142 36.9003 20.8815 36.9676 20.9489 37.0199C21.6081 37.5284 22.4714 37.5932 23.2085 37.2003L38.8095 28.7398C39.479 28.3847 39.8942 27.6851 39.9042 26.9266Z" fill="#E11515"/>
</g>
<defs>
<filter id="filter0_b_1010_4278" x="4.1543" y="0.298828" width="51.75" height="53.1553" filterUnits="userSpaceOnUse" color-interpolation-filters="sRGB">
<feFlood flood-opacity="0" result="BackgroundImageFix"/>
<feGaussianBlur in="BackgroundImage" stdDeviation="8"/>
<feComposite in2="SourceAlpha" operator="in" result="effect1_backgroundBlur_1010_4278"/>
<feBlend mode="normal" in="SourceGraphic" in2="effect1_backgroundBlur_1010_4278" result="shape"/>
</filter>
</defs>
</svg>
