<svg width="40" height="40" viewBox="0 0 40 40" fill="none" xmlns="http://www.w3.org/2000/svg">
<path fill-rule="evenodd" clip-rule="evenodd" d="M20.0009 14.166C16.7793 14.166 14.1676 16.7777 14.1676 19.9993C14.1676 23.221 16.7793 25.8327 20.0009 25.8327C23.2226 25.8327 25.8343 23.221 25.8343 19.9993C25.8343 16.7777 23.2226 14.166 20.0009 14.166ZM17.5009 19.9993C17.5009 18.6186 18.6202 17.4993 20.0009 17.4993C21.3816 17.4993 22.5009 18.6186 22.5009 19.9993C22.5009 21.3801 21.3816 22.4993 20.0009 22.4993C18.6202 22.4993 17.5009 21.3801 17.5009 19.9993Z" fill="#E11515"/>
<path fill-rule="evenodd" clip-rule="evenodd" d="M20.0009 6.66602C13.5213 6.66602 9.32915 9.937 6.81541 13.1363C5.56658 14.7257 4.72036 16.3073 4.18555 17.4895C3.91722 18.0826 3.7247 18.581 3.59738 18.9375C3.53367 19.1159 3.48611 19.2592 3.45341 19.3617C3.43705 19.413 3.4244 19.4541 3.41529 19.4843C3.41073 19.4994 3.40706 19.5117 3.40425 19.5213C3.40285 19.5261 3.40166 19.5302 3.40069 19.5335L3.39938 19.538L3.39885 19.5399C3.39862 19.5407 3.3984 19.5415 5.00094 19.9993L3.3984 19.5415L3.26758 19.9993L3.3984 20.4572L5.00094 19.9993C3.3984 20.4572 3.39862 20.458 3.39885 20.4588L3.39938 20.4607L3.40069 20.4652L3.40196 20.4696L3.40425 20.4774C3.40706 20.487 3.41073 20.4993 3.41529 20.5144C3.4244 20.5446 3.43705 20.5857 3.45341 20.637C3.48611 20.7394 3.53367 20.8828 3.59738 21.0612C3.7247 21.4177 3.91722 21.9161 4.18555 22.5092C4.72036 23.6914 5.56658 25.273 6.81541 26.8624C9.32915 30.0617 13.5213 33.3327 20.0009 33.3327C26.4805 33.3327 30.6727 30.0617 33.1865 26.8624C34.4353 25.273 35.2815 23.6914 35.8163 22.5092C36.0847 21.9161 36.2772 21.4177 36.4045 21.0612C36.4682 20.8828 36.5158 20.7394 36.5485 20.637C36.5648 20.5857 36.5775 20.5446 36.5866 20.5144C36.5887 20.5075 36.5906 20.5012 36.5923 20.4954C36.5943 20.4886 36.5961 20.4826 36.5976 20.4774L36.5994 20.4715L36.6012 20.4652L36.6025 20.4607L36.603 20.4588C36.6033 20.458 36.6035 20.4572 35.0009 19.9993L36.6035 20.4572L36.7343 19.9993L36.6035 19.5415L35.0009 19.9993C36.6035 19.5415 36.6033 19.5407 36.603 19.5399L36.6025 19.538L36.6012 19.5335C36.6002 19.5302 36.599 19.5261 36.5976 19.5213C36.5948 19.5117 36.5911 19.4994 36.5866 19.4843C36.5775 19.4541 36.5648 19.413 36.5485 19.3617C36.5158 19.2592 36.4682 19.1159 36.4045 18.9375C36.2772 18.581 36.0847 18.0826 35.8163 17.4895C35.2815 16.3073 34.4353 14.7257 33.1865 13.1363C30.6727 9.937 26.4805 6.66602 20.0009 6.66602ZM7.22258 21.1353C7.01152 20.6688 6.85902 20.2782 6.75785 19.9993C6.85902 19.7205 7.01152 19.3299 7.22258 18.8634C7.67735 17.8581 8.39363 16.523 9.43647 15.1957C11.5061 12.5617 14.8139 9.99935 20.0009 9.99935C25.188 9.99935 28.4958 12.5617 30.5654 15.1957C31.6082 16.523 32.3245 17.8581 32.7793 18.8634C32.9904 19.3299 33.1429 19.7205 33.244 19.9993C33.1429 20.2782 32.9904 20.6688 32.7793 21.1353C32.3245 22.1406 31.6082 23.4757 30.5654 24.803C28.4958 27.437 25.188 29.9993 20.0009 29.9993C14.8139 29.9993 11.5061 27.437 9.43647 24.803C8.39363 23.4757 7.67735 22.1406 7.22258 21.1353Z" fill="#E11515"/>
</svg>
