<?xml version="1.0" standalone="no"?>
<!DOCTYPE svg PUBLIC "-//W3C//DTD SVG 20010904//EN"
 "http://www.w3.org/TR/2001/REC-SVG-20010904/DTD/svg10.dtd">
<svg version="1.0" xmlns="http://www.w3.org/2000/svg"
 width="136.000000pt" height="136.000000pt" viewBox="0 0 136.000000 136.000000"
 preserveAspectRatio="xMidYMid meet">
<metadata>
Created by potrace 1.14, written by Peter Selinger 2001-2017
</metadata>
<g transform="translate(0.000000,136.000000) scale(0.100000,-0.100000)"
fill="#000000" stroke="none">
<path d="M200 1239 c0 -5 -5 -7 -12 -3 -7 5 -8 3 -3 -6 6 -10 4 -12 -7 -7 -9
3 -21 0 -28 -6 -10 -10 -11 -8 -6 7 6 19 6 19 -12 3 -10 -9 -22 -14 -27 -10
-4 5 -5 0 -2 -9 4 -12 1 -18 -8 -18 -19 0 -28 -17 -14 -26 8 -5 9 -3 4 7 -5 8
-5 11 0 7 10 -10 14 -78 4 -72 -4 2 -10 0 -14 -6 -3 -5 0 -10 7 -10 20 0 18
-160 -2 -160 -11 -1 -10 -4 5 -12 19 -11 19 -11 0 -19 -17 -6 -17 -8 -3 -8 12
-1 15 -6 11 -18 -5 -12 -3 -14 7 -8 10 6 12 3 8 -13 -3 -12 -2 -20 2 -19 4 1
8 -2 8 -8 1 -5 -6 -9 -13 -7 -10 2 -13 -3 -8 -15 6 -15 4 -16 -9 -5 -13 10
-18 10 -24 1 -4 -7 -3 -10 2 -6 5 3 18 -1 29 -9 17 -13 17 -14 1 -14 -11 0
-14 -4 -10 -12 14 -22 11 -308 -3 -308 -6 0 -14 -4 -17 -9 -3 -5 2 -8 11 -7
13 1 16 -10 17 -61 1 -59 -6 -79 -17 -50 -3 6 -4 2 -4 -10 1 -12 4 -21 7 -21
20 2 21 -4 4 -18 -18 -14 -18 -15 6 -9 18 5 21 4 11 -3 -8 -6 -11 -17 -7 -27
5 -13 2 -16 -11 -11 -17 6 -17 5 -1 -7 16 -13 16 -15 0 -32 -12 -13 -13 -15
-2 -9 30 17 41 14 29 -8 -10 -18 -9 -20 5 -15 9 4 17 2 17 -3 1 -6 3 -14 4
-20 1 -5 3 -13 4 -16 0 -4 8 -1 16 6 14 12 19 7 16 -15 -1 -5 6 -1 14 9 8 11
15 14 15 7 0 -7 4 -10 8 -7 5 3 21 -2 37 -10 23 -12 26 -12 16 0 -8 10 -9 16
-1 21 5 3 10 0 10 -7 0 -9 3 -9 10 2 9 13 14 7 11 -12 -2 -12 9 -9 25 7 11 11
21 12 40 5 32 -12 37 -12 29 0 -3 5 0 7 8 4 8 -3 17 2 20 10 4 9 14 16 23 16
10 0 14 3 11 7 -4 3 0 11 8 17 8 6 16 25 17 41 1 17 6 33 11 36 5 3 1 9 -8 12
-10 5 -14 3 -9 -5 4 -7 3 -8 -5 -4 -6 4 -8 13 -4 19 11 18 14 49 5 43 -5 -3
-9 1 -9 9 0 11 4 12 13 4 8 -7 14 -6 20 2 4 7 3 9 -3 6 -6 -4 -13 3 -16 14 -4
15 -2 19 9 15 8 -3 14 -3 14 0 0 2 -10 9 -22 14 -16 6 -18 9 -7 9 24 1 31 29
11 40 -9 6 -12 11 -5 11 7 0 17 9 23 20 9 16 8 18 -5 14 -8 -3 -13 -9 -10 -13
2 -4 -2 -8 -9 -8 -11 0 -12 4 -3 18 6 10 14 16 18 13 4 -2 10 2 12 8 4 10 6
10 6 0 1 -7 6 -10 11 -7 14 9 12 -9 -2 -24 -11 -10 -10 -11 5 -6 9 4 17 12 17
17 0 6 8 4 17 -3 14 -12 16 -12 8 0 -6 11 -4 13 11 7 32 -13 55 -16 49 -6 -3
5 -1 11 5 15 5 3 10 2 10 -4 0 -9 17 -10 35 0 6 3 16 4 23 3 6 -1 17 -2 23 -3
5 0 8 -5 4 -10 -3 -5 0 -13 6 -17 8 -4 9 -3 5 4 -4 7 -2 12 4 12 6 0 8 5 4 13
-5 8 -2 8 9 -2 14 -11 17 -11 18 0 0 8 4 5 9 -6 5 -11 9 -14 9 -6 1 8 8 11 21
8 11 -3 22 -1 25 3 3 5 13 7 23 5 9 -2 21 -4 25 -4 5 -1 6 -5 3 -9 -2 -4 4 -8
14 -8 15 0 16 3 8 14 -9 10 -8 12 3 10 8 -2 17 -7 21 -13 5 -6 8 -6 8 2 0 6 8
11 17 11 10 0 27 3 37 7 15 7 17 5 11 -6 -8 -12 -6 -12 8 0 9 7 14 18 10 25
-3 6 -3 8 2 4 4 -4 16 -3 26 2 12 7 19 6 22 -3 4 -7 6 -6 6 4 1 18 27 34 62
38 5 0 7 6 4 11 -3 6 -1 10 5 10 6 0 8 4 5 10 -4 6 1 7 11 3 12 -4 15 -3 10 5
-9 15 16 51 46 70 13 7 16 11 7 9 -9 -3 -16 1 -16 8 0 7 8 12 18 10 10 -2 21
1 25 6 3 5 2 8 -3 7 -4 -2 -8 2 -8 7 0 6 4 9 8 7 5 -1 6 2 2 8 -3 6 -11 8 -16
5 -5 -4 -9 -1 -9 4 0 6 8 11 18 11 14 0 15 2 2 10 -13 9 -13 10 0 10 9 0 11 3
5 8 -13 9 -17 72 -4 72 6 0 8 -4 5 -9 -3 -5 1 -12 9 -15 12 -4 13 -2 6 13 -6
10 -7 22 -3 26 4 5 2 5 -5 1 -6 -3 -15 -1 -19 5 -4 8 -3 9 5 5 6 -4 14 0 17 8
3 9 11 13 18 9 7 -4 7 -1 -1 9 -7 8 -10 18 -6 22 4 4 3 10 -2 14 -14 10 -39
55 -26 47 6 -3 11 -2 11 3 0 6 -7 12 -15 15 -8 4 -12 15 -10 27 2 11 -1 20 -6
20 -6 0 -7 5 -4 10 3 6 1 10 -4 10 -6 0 -11 -5 -11 -12 0 -6 -3 -8 -6 -5 -4 4
-1 14 6 22 7 9 9 15 4 14 -21 -4 -28 2 -14 11 9 6 10 10 3 10 -6 0 -15 -5 -18
-11 -5 -7 -14 -4 -26 7 -15 14 -17 20 -6 32 9 13 9 14 0 8 -12 -6 -18 5 -14
27 2 12 -6 8 -20 -10 -12 -14 -12 -16 0 -8 10 5 12 4 7 -4 -6 -8 -12 -9 -20
-2 -7 6 -17 7 -21 3 -5 -4 -5 -1 -1 6 4 7 12 9 18 6 7 -5 8 -2 4 5 -5 7 -15
10 -23 7 -11 -4 -13 -2 -10 9 7 18 -9 30 -19 14 -5 -8 -3 -9 6 -4 9 6 11 4 5
-5 -6 -11 -10 -10 -19 2 -15 19 -46 31 -42 15 1 -7 1 -9 -1 -4 -3 4 -9 5 -14
2 -5 -4 -6 2 -2 12 6 16 5 16 -16 -1 -22 -20 -22 -20 -15 0 7 17 6 17 -9 5 -9
-7 -17 -10 -17 -6 0 4 -6 2 -14 -4 -11 -9 -16 -9 -22 0 -5 8 -3 10 7 4 8 -5
10 -4 6 0 -10 12 -39 16 -32 5 3 -5 0 -12 -6 -16 -8 -4 -9 -3 -5 4 8 13 -20
12 -42 -1 -8 -6 -15 0 -21 15 -7 16 -10 18 -10 6 -1 -9 -5 -19 -10 -22 -4 -3
-7 6 -5 20 1 14 -1 23 -4 19 -4 -4 -7 -12 -7 -18 0 -5 -6 -12 -14 -15 -8 -3
-11 -1 -8 4 3 5 -5 14 -17 20 -17 8 -23 7 -23 -2 0 -7 4 -11 8 -8 4 2 11 -1
15 -7 4 -8 3 -9 -4 -5 -7 4 -12 1 -12 -6 0 -8 -4 -7 -11 4 -6 11 -16 15 -26
11 -12 -5 -14 -3 -8 7 5 9 4 11 -4 6 -6 -4 -9 -12 -6 -17 4 -5 1 -9 -4 -9 -6
0 -11 5 -11 10 0 6 -5 10 -11 10 -5 0 -8 -4 -5 -8 3 -5 -3 -9 -12 -9 -19 0
-44 21 -37 31 3 3 -1 1 -7 -4 -10 -9 -10 -12 0 -19 8 -5 -1 -8 -23 -8 -19 0
-35 5 -35 10 0 6 -3 7 -7 4 -3 -4 -12 -2 -20 5 -11 8 -12 7 -7 -6 3 -9 1 -16
-5 -16 -6 0 -11 4 -11 9 0 5 -12 11 -27 14 -24 4 -25 3 -11 -7 15 -11 14 -13
-12 -13 -23 0 -27 3 -19 13 7 8 6 14 -2 20 -8 4 -9 3 -5 -4 9 -15 -15 -16 -32
-2 -9 7 -9 7 -2 -2 14 -17 12 -25 -5 -25 -8 0 -12 4 -9 9 8 13 -10 10 -25 -4
-12 -11 -13 -10 -7 6 7 20 7 20 -15 0 -17 -15 -21 -15 -17 -3 4 11 0 15 -13
14 -10 -1 -22 -4 -25 -8 -13 -12 -24 -7 -18 8 4 8 3 15 0 15 -3 0 -6 -5 -6
-11z m178 -164 c17 1 32 -2 32 -7 0 -6 -8 -7 -17 -3 -15 5 -16 4 -5 -7 11 -11
15 -10 25 3 7 9 18 14 26 11 7 -2 17 2 22 9 7 11 9 11 9 1 0 -9 7 -11 20 -7
11 3 20 3 20 -2 0 -5 9 -9 20 -9 11 0 20 4 20 8 0 4 4 8 10 8 5 0 7 -8 4 -17
-5 -14 -4 -15 4 -4 6 8 26 14 46 14 22 0 33 4 29 11 -4 6 1 5 10 -3 13 -10 20
-11 31 -2 11 9 16 9 22 0 5 -8 3 -9 -6 -4 -8 5 -11 4 -6 -3 9 -15 38 -3 30 12
-4 6 1 3 11 -6 17 -16 19 -16 30 -1 10 13 14 13 20 3 6 -9 4 -11 -6 -5 -8 5
-11 4 -6 -1 5 -5 12 -8 15 -7 4 1 13 -4 21 -10 12 -10 12 -8 1 13 l-13 25 22
-19 c14 -13 21 -15 21 -6 0 9 7 7 22 -6 12 -10 18 -13 14 -6 -4 6 -2 12 4 12
6 0 8 5 4 13 -6 8 -3 8 9 -1 9 -8 21 -11 26 -8 5 4 13 1 17 -5 4 -7 3 -9 -4
-5 -6 3 -13 3 -15 -1 -3 -5 8 -9 25 -10 20 0 26 2 17 8 -7 4 -11 11 -7 14 3 3
13 -1 21 -10 18 -18 31 -20 21 -3 -4 6 -3 8 4 4 13 -8 8 -42 -9 -62 -6 -8 -9
-14 -5 -14 3 0 9 0 14 0 4 0 7 3 7 8 1 4 5 18 9 31 6 17 11 20 16 11 7 -12
-18 -70 -31 -70 -4 0 -12 7 -19 15 -18 21 -35 19 -19 -2 10 -14 8 -13 -9 2
-13 11 -23 15 -22 10 5 -21 -1 -27 -14 -16 -7 6 -24 10 -37 7 -28 -4 -62 11
-54 24 3 5 0 12 -6 16 -7 4 -9 3 -5 -4 3 -6 -7 -20 -23 -31 -18 -13 -32 -17
-36 -11 -3 5 -15 10 -26 10 -14 0 -18 -4 -13 -12 5 -9 2 -9 -9 1 -14 11 -17
11 -17 0 0 -8 -5 -6 -14 6 -13 18 -51 32 -40 14 3 -5 10 -7 15 -4 5 3 6 -1 3
-9 -3 -9 -10 -16 -16 -16 -5 0 -6 5 -3 10 3 6 -1 10 -10 10 -9 0 -14 4 -11 8
3 5 -1 9 -9 9 -8 0 -12 -5 -8 -10 3 -5 -3 -7 -13 -5 -11 2 -18 10 -16 17 1 7
-2 9 -8 6 -6 -4 -9 -14 -6 -22 3 -8 1 -11 -5 -8 -5 4 -17 1 -26 -7 -12 -9 -15
-9 -9 0 4 7 2 12 -4 12 -6 0 -8 5 -4 13 5 7 1 7 -10 -2 -14 -12 -19 -12 -25
-2 -6 10 -10 9 -15 -4 -3 -9 -10 -13 -16 -10 -5 3 -10 1 -10 -4 0 -6 -5 -11
-11 -11 -5 0 -8 4 -4 9 3 5 0 13 -6 17 -8 5 -8 8 1 14 8 5 8 9 -3 13 -11 4
-15 0 -12 -14 5 -24 -12 -25 -18 -1 -4 13 -5 11 -6 -5 0 -13 -6 -23 -12 -23
-5 0 -8 4 -4 9 3 5 0 13 -6 17 -8 5 -9 3 -4 -6 5 -8 3 -11 -6 -8 -8 3 -13 14
-11 24 2 15 1 16 -7 4 -5 -8 -7 -18 -4 -23 3 -5 -4 -7 -14 -5 -11 2 -28 -4
-38 -12 -17 -14 -17 -13 0 15 l19 30 -21 -18 c-21 -18 -21 -18 -16 2 3 12 1
21 -6 21 -6 0 -11 5 -11 11 0 5 5 7 10 4 13 -8 13 8 0 21 -6 6 2 9 21 9 16 0
29 -5 29 -12 0 -7 4 -13 10 -13 5 0 7 8 4 18 -5 14 -3 14 11 -3 17 -20 17 -20
12 3 -4 17 -2 21 6 14 7 -6 27 -9 45 -7z m669 -85 c1 -11 -2 -20 -5 -20 -4 0
-8 9 -9 20 -1 11 2 20 5 20 4 0 8 -9 9 -20z m33 16 c0 -3 -4 -8 -10 -11 -5 -3
-10 -1 -10 4 0 6 5 11 10 11 6 0 10 -2 10 -4z m-257 -19 c3 -8 -1 -14 -8 -14
-7 0 -11 6 -8 14 3 7 6 13 8 13 2 0 5 -6 8 -13z m-147 -276 c-6 -10 24 -25 32
-16 3 3 0 5 -6 5 -7 0 -12 3 -12 8 0 13 72 5 81 -9 8 -13 13 -5 10 14 -1 4 9
3 21 -4 26 -14 100 -23 79 -10 -8 5 -22 8 -32 6 -10 -2 -21 0 -23 4 -5 8 92 7
100 -2 3 -3 17 -2 31 4 17 6 22 6 18 -2 -4 -6 2 -13 14 -16 12 -3 21 -10 21
-15 0 -5 -4 -7 -8 -4 -4 2 -9 -5 -9 -16 -1 -12 -6 -25 -11 -30 -6 -6 -8 1 -7
16 2 15 -1 24 -6 20 -5 -3 -7 -10 -4 -15 4 -5 1 -9 -5 -9 -6 0 -8 -4 -5 -10 3
-5 0 -8 -7 -5 -32 10 -78 12 -78 3 0 -6 7 -8 15 -5 8 4 17 3 19 -2 3 -4 -10
-8 -29 -8 -27 0 -32 3 -24 13 7 8 6 14 -2 20 -8 4 -9 3 -5 -4 9 -15 -6 -16
-22 -2 -9 7 -9 7 -2 -2 14 -17 12 -25 -5 -25 -8 0 -12 5 -8 10 3 5 -4 6 -17 2
-17 -6 -21 -4 -15 6 5 8 -1 6 -12 -4 -14 -12 -23 -15 -28 -8 -3 6 -2 11 3 11
5 0 9 7 9 16 0 15 -1 15 -12 0 -14 -19 -40 -22 -29 -3 5 8 2 8 -9 -2 -20 -16
-23 -26 -4 -15 8 5 8 2 -2 -9 -15 -18 -26 -23 -16 -7 10 16 -24 23 -42 9 -12
-10 -15 -10 -9 -1 8 14 -19 12 -44 -2 -8 -5 -12 -6 -8 -1 4 4 2 15 -5 23 -9
13 -9 14 1 8 13 -8 12 19 -2 42 -7 11 -4 12 12 3 15 -8 23 -8 28 1 4 6 3 8 -4
4 -6 -3 -13 -3 -16 2 -8 13 37 12 53 -1 11 -9 13 -9 8 0 -4 7 0 13 10 16 10 3
19 5 21 6 2 0 1 -3 -2 -8z m353 2 c11 9 13 9 8 0 -4 -6 -3 -14 3 -18 5 -3 10
-12 10 -18 0 -7 -4 -6 -10 3 -8 13 -10 12 -10 -2 0 -10 -5 -18 -11 -18 -5 0
-7 -5 -3 -12 4 -7 3 -8 -5 -4 -9 6 -9 11 1 23 10 12 9 17 -5 28 -9 7 -17 16
-17 21 0 4 5 3 12 -4 9 -9 15 -9 27 1z m-764 -13 c-3 -5 8 -4 25 2 17 5 33 8
36 5 3 -3 -4 -8 -15 -12 -12 -3 -21 -11 -21 -16 0 -6 6 -7 13 -2 14 9 41 14
33 6 -3 -3 -1 -14 4 -24 6 -11 6 -20 1 -24 -5 -3 -8 -19 -6 -35 3 -21 1 -28
-7 -24 -7 5 -8 2 -3 -7 15 -23 13 -53 -4 -73 -9 -11 -10 -16 -3 -12 14 9 15 8
14 -113 0 -51 -4 -96 -8 -100 -4 -3 -4 -1 -1 5 7 12 -21 29 -31 19 -3 -3 0 -5
6 -5 15 0 15 -27 0 -36 -7 -5 -9 -2 -5 8 4 11 -1 16 -19 16 -13 0 -21 -5 -18
-10 4 -6 -3 -5 -14 1 -22 12 -39 33 -25 30 19 -3 23 2 13 21 -8 15 -8 20 3 20
8 0 14 7 14 15 0 12 -3 12 -15 3 -12 -10 -11 -6 1 25 11 26 13 39 5 43 -6 4
-8 3 -5 -2 3 -6 2 -16 -2 -23 -7 -11 -6 206 1 241 2 7 -4 12 -12 10 -12 -3
-12 -1 -3 9 10 9 15 10 27 0 10 -8 16 -9 21 -1 4 6 1 9 -7 8 -7 -2 -12 3 -10
10 1 8 -1 11 -6 8 -5 -3 -9 1 -9 7 0 7 9 14 19 14 10 1 16 -2 13 -7z m805 0
c0 -5 -2 -10 -4 -10 -3 0 -8 5 -11 10 -3 6 -1 10 4 10 6 0 11 -4 11 -10z
m-593 -286 c-3 -3 -12 -4 -19 -1 -8 3 -5 6 6 6 11 1 17 -2 13 -5z"/>
<path d="M455 1060 c-3 -5 -1 -10 4 -10 6 0 11 5 11 10 0 6 -2 10 -4 10 -3 0
-8 -4 -11 -10z"/>
<path d="M616 1062 c-3 -5 1 -9 9 -9 8 0 12 4 9 9 -3 4 -7 8 -9 8 -2 0 -6 -4
-9 -8z"/>
<path d="M271 1044 c0 -11 3 -14 6 -6 3 7 2 16 -1 19 -3 4 -6 -2 -5 -13z"/>
<path d="M874 1010 c0 -13 4 -16 10 -10 7 7 7 13 0 20 -6 6 -10 3 -10 -10z"/>
<path d="M676 1005 c4 -8 8 -15 10 -15 2 0 4 7 4 15 0 8 -4 15 -10 15 -5 0 -7
-7 -4 -15z"/>
<path d="M774 1005 c-5 -13 -9 -13 -23 -3 -14 12 -15 11 -2 -4 17 -22 18 -22
31 2 6 11 8 20 5 20 -3 0 -8 -7 -11 -15z"/>
<path d="M958 1013 c7 -3 16 -2 19 1 4 3 -2 6 -13 5 -11 0 -14 -3 -6 -6z"/>
<path d="M426 1002 c-3 -5 1 -9 9 -9 8 0 15 4 15 9 0 4 -4 8 -9 8 -6 0 -12 -4
-15 -8z"/>
<path d="M910 1001 c0 -6 4 -13 10 -16 6 -3 7 1 4 9 -7 18 -14 21 -14 7z"/>
<path d="M910 701 c0 -6 4 -13 10 -16 6 -3 7 1 4 9 -7 18 -14 21 -14 7z"/>
<path d="M616 673 c-6 -14 -5 -15 5 -6 7 7 10 15 7 18 -3 3 -9 -2 -12 -12z"/>
<path d="M770 660 c0 -5 5 -10 11 -10 5 0 7 5 4 10 -3 6 -8 10 -11 10 -2 0 -4
-4 -4 -10z"/>
<path d="M585 639 c-3 -4 2 -6 10 -5 21 3 28 13 10 13 -9 0 -18 -4 -20 -8z"/>
<path d="M315 653 c1 -10 -1 -23 -6 -29 -5 -7 -3 -11 6 -11 8 0 12 4 9 8 -2 4
0 10 5 14 11 6 3 35 -9 35 -5 0 -7 -8 -5 -17z"/>
<path d="M234 485 c0 -13 3 -22 7 -19 8 4 6 30 -2 38 -3 3 -5 -5 -5 -19z"/>
<path d="M257 299 c7 -7 15 -10 18 -7 3 3 -2 9 -12 12 -14 6 -15 5 -6 -5z"/>
<path d="M804 1230 c0 -13 4 -16 10 -10 7 7 7 13 0 20 -6 6 -10 3 -10 -10z"/>
<path d="M906 1232 c-3 -5 1 -9 9 -9 8 0 12 4 9 9 -3 4 -7 8 -9 8 -2 0 -6 -4
-9 -8z"/>
<path d="M1140 1124 c0 -1 6 -7 14 -13 10 -9 15 -8 19 2 3 8 -3 13 -14 13 -11
0 -19 -1 -19 -2z"/>
<path d="M70 1020 c0 -5 5 -10 11 -10 5 0 7 5 4 10 -3 6 -8 10 -11 10 -2 0 -4
-4 -4 -10z"/>
<path d="M1256 982 c-2 -4 -1 -14 4 -22 7 -11 9 -9 7 8 -1 24 -3 26 -11 14z"/>
<path d="M1246 807 c3 -10 9 -15 12 -12 3 3 0 11 -7 18 -10 9 -11 8 -5 -6z"/>
<path d="M70 659 c0 -5 5 -7 10 -4 6 3 10 8 10 11 0 2 -4 4 -10 4 -5 0 -10 -5
-10 -11z"/>
<path d="M1182 630 c-7 -11 -9 -20 -4 -20 4 0 13 9 20 20 7 11 9 20 4 20 -4 0
-13 -9 -20 -20z"/>
<path d="M79 628 c-6 -21 -5 -38 1 -38 5 0 8 9 7 20 -1 17 -5 26 -8 18z"/>
<path d="M70 540 c0 -5 5 -10 11 -10 5 0 7 5 4 10 -3 6 -8 10 -11 10 -2 0 -4
-4 -4 -10z"/>
<path d="M1035 500 c3 -5 8 -10 11 -10 2 0 4 5 4 10 0 6 -5 10 -11 10 -5 0 -7
-4 -4 -10z"/>
<path d="M836 468 c3 -5 10 -6 15 -3 13 9 11 12 -6 12 -8 0 -12 -4 -9 -9z"/>
<path d="M79 388 c-6 -21 -5 -38 1 -38 5 0 8 9 7 20 -1 17 -5 26 -8 18z"/>
<path d="M479 308 c-5 -18 -6 -38 -1 -34 7 8 12 36 6 36 -2 0 -4 -1 -5 -2z"/>
</g>
</svg>
